<svg xmlns="http://www.w3.org/2000/svg" viewBox="0 0 162.49255 162.49255">
  <rect class="square rorange" x="34.25803" y="33.92131" width="93.97648" height="93.97648" transform="translate(81.00817 -33.75193) rotate(45)" style="fill: #cc3c1d;opacity: 0.8"/>
  <polygon class="polygon inner" points="108.954 14.027 53.538 14.027 14.353 53.212 14.353 108.628 53.538 147.813 108.954 147.813 148.14 108.628 148.14 53.212 108.954 14.027" style="fill: none;stroke: #fff;stroke-miterlimit: 10;stroke-width: 0.75px;opacity: 0.4"/>
  <polygon class="polygon inner ani" points="108.954 14.027 53.538 14.027 14.353 53.212 14.353 108.628 53.538 147.813 108.954 147.813 148.14 108.628 148.14 53.212 108.954 14.027" style="fill: none;stroke: #fff;stroke-miterlimit: 10;stroke-width: 0.75px;opacity: 0.4"/>
  <rect class="square" x="24.70524" y="24.79506" width="113.08208" height="113.08208" transform="translate(81.30979 -33.627) rotate(45)" style="fill: none;stroke: #fff;stroke-miterlimit: 10;stroke-width: 0.75px;opacity: 0.15"/>
  <polygon class="polygon outer" points="114.744 0.375 47.748 0.375 0.375 47.748 0.375 114.744 47.748 162.118 114.744 162.118 162.118 114.744 162.118 47.748 114.744 0.375" style="fill: none;stroke: #fff;stroke-miterlimit: 10;stroke-width: 0.75px;opacity: 0.15"/>
  <g class="breakthrough">
    <g>
      <g>
        <g>
          <path d="M82.15894,81.60008a1.03985,1.03985,0,0,0,0-1.18464l-.59228.59231Z" style="fill: #fff"/>
          <path d="M81.2994,80.74051l.59228-.59231a1.0399,1.0399,0,0,0-1.18456,0Z" style="fill: #fff"/>
          <path d="M80.43988,80.41544a1.03985,1.03985,0,0,0,0,1.18464l.5923-.59233Z" style="fill: #fff"/>
          <path d="M81.2994,81.275l-.59231.59233a1.03986,1.03986,0,0,0,1.18462,0Z" style="fill: #fff"/>
        </g>
        <g>
          <path d="M78.95116,78.39223a3.5036,3.5036,0,0,1,4.69648,0l1.208-1.208L81.2994,73.628l-3.55622,3.55622Z" style="fill: #fff"/>
          <path d="M85.12286,84.564l3.55626-3.55626-3.55626-3.55629-1.208,1.208a3.50357,3.50357,0,0,1,0,4.69654Z" style="fill: #fff"/>
          <path d="M83.64764,83.62326a3.5036,3.5036,0,0,1-4.6965,0l-1.208,1.208,3.55624,3.55622,3.55622-3.55622Z" style="fill: #fff"/>
          <path d="M78.68391,83.356a3.50358,3.50358,0,0,1,0-4.69657l-1.208-1.208-3.55628,3.55629L77.47592,84.564Z" style="fill: #fff"/>
        </g>
      </g>
      <g>
        <path d="M64.73185,121.41175l-2.11129-2.11125.4537-.4537c-.76383-.00062-1.39927-.00938-1.98657-.028-.10608-.00347-.211-.00418-.31616-.00538l2.598,2.598Z" style="fill: #fff"/>
        <path d="M63.03449,43.08327l-.41416-.41416,2.14732-2.14733h-1.362L60.779,43.14843c.27254-.00144.55358-.00881.85986-.024C62.09235,43.10208,62.55328,43.08835,63.03449,43.08327Z" style="fill: #fff"/>
        <path d="M94.45387,125.20354c-.39782.12657-.54567.24652-.94343.3614l-2.69772,2.69771-2.27813-2.27813q-.59641.09484-1.19028.17175l2.78741,2.78739-5.61885,6.36888v1.362l11.33634-12.0864C95.84089,124.592,94.77038,125.10242,94.45387,125.20354Z" style="fill: #fff"/>
        <path d="M72.23553,128.91535l2.83279-2.8328q-.58768-.08765-1.17488-.18712l-2.33891,2.33891-2.86931-2.61925c-.30937-.13192-.61772-.269-.9235-.41827l-1.67311-.81631,12.24054,11.9904q.0067-.67371.00906-1.35292Z" style="fill: #fff"/>
        <path d="M93.349,49.00978,90.77,51.58885l-7.00872-7.00866a7.88458,7.88458,0,0,0-.29385,1.06812L90.089,52.26985l-8.934,8.934-8.91962-8.91968,6.88032-6.88029a7.42422,7.42422,0,0,0-.32331-1.03867l-7.238,7.238-2.33244-2.33245c-.00265.42727-.007.85234-.01232,1.27206l-.00091.07672,1.66467,1.66467-8.80407,8.804L58.6504,57.66936q-.41842.26436-.824.538l3.56188,3.56186-8.93394,8.93391-3.10231-3.10231q-.23451.44845-.45225.90975l2.87356,2.87356-5.3735,5.37346c-.08409.51846-.15561,1.047-.21963,1.58161l6.27413-6.27407,8.91974,8.91968-8.91965,8.91971-6.2428-6.24274q.0877.79531.20558,1.56756l5.35622,5.35618-2.89955,2.89955c.14547.30693.29814.60857.45461.90742l3.12594-3.126,8.93391,8.93388L57.82578,103.763q.40519.27368.82444.53756l3.41915-3.41918,8.80413,8.80411-1.59471,1.59474c.02557.44467.03715.89114.02134,1.34063l2.25437-2.25437,6.76872,6.76868c-.01408-.47186-.02666-.93978-.03484-1.39683l-6.05288-6.05285,8.91966-8.91971,8.93393,8.93388-5.66973,5.66978c-.01011.47184-.0303.94332-.05255,1.41453l6.40328-6.40331,2.51411,2.51407a12.435,12.435,0,0,1-.00444-1.36641L91.4511,109.6997l8.93387-8.93391,3.53523,3.53519q.41921-.264.82435-.53765l-3.67857-3.67854,8.80389-8.80393,3.28285,3.28287c.1584-.29717.30955-.59975.457-.905l-3.05887-3.05886,5.64043-5.64049q.11213-.76749.19529-1.55729l-6.51672,6.51678L100.936,80.98492l8.934-8.93409,6.55431,6.55429q-.08981-.79717-.20887-1.57088L110.551,71.36983l3.0377-3.0377q-.22143-.45771-.45855-.90345L109.87,70.68883l-8.8041-8.80407,3.67851-3.67855q-.40453-.27434-.82409-.53791l-3.53542,3.53545L91.451,52.26985l1.909-1.90906Q93.35148,49.68981,93.349,49.00978Zm6.3549,12.875L93.92017,67.6685c.2109.2.4188.40453.62194.6156.0204.0212.03919.04365.0595.065l5.78331-5.7833,8.8041,8.80407-8.934,8.93409-.68379-.6838c.0301.49961.04268,1.0004.02787,1.50142.00438.41413-.01112.82577-.03572,1.236l.69164-.69164,8.93388,8.93394-8.8039,8.80392L94.586,93.60484c-.069.07213-.13463.1465-.205.21775-.15622.15814-.31745.30928-.47824.461l5.80118,5.80118-8.93388,8.9339-8.93393-8.93387.83914-.83915c-.457.03378-.91616.05644-1.37908.05644l-.039-.00038-.10208.10208-.10418-.10417c-.05761-.0007-.115-.00059-.17286-.00176-.42572-.00956-.84793-.03889-1.2683-.0774l.86433.86434-8.91965,8.91971-8.80413-8.80411,5.95306-5.95306c-.16411-.15673-.32819-.31354-.48733-.477-.06566-.06743-.12686-.138-.19138-.20632l-5.95535,5.95535-8.93391-8.93388,8.91965-8.91971,1.03353,1.03352c-.04515-.47571-.06764-.95583-.07622-1.43822l-.27631-.2763.272-.272c.00547-.4818.03081-.9601.07287-1.43487l-1.02591,1.02591-8.91974-8.91968,8.93394-8.93391,5.93239,5.93239c.13566-.14273.26975-.28662.41052-.42562.08853-.08742.181-.16946.271-.25485l-5.93292-5.93292,8.80407-8.80405L80.474,61.88487l-.85355.85355c.47566-.045.956-.06773,1.43872-.07672l.09583-.09583.09133.09133c.05658-.0005.11266-.00405.16933-.00405l.13028.00047c.36981.00252.7372.01981,1.10322.04441l-.81316-.81316,8.934-8.934Z" style="fill: #fff"/>
        <path d="M99.41518,118.847c-.05879,0-.12008-.00044-.17925-.00053l.24647.24647-2.68221,2.68221,1.21942.14259,3.08884-3.08887C100.60325,118.841,100.05647,118.847,99.41518,118.847Z" style="fill: #fff"/>
        <path d="M28.52859,85.20878l-4.2239-4.22386,4.20867-4.2087q.06724-.76349.16079-1.52279l-5.42976,5.42979-.30179.30161,5.74768,5.74762C28.627,86.22655,28.57532,85.71812,28.52859,85.20878Z" style="fill: #fff"/>
        <path d="M133.98736,76.01976q.07836.74448.13078,1.49278l3.47226,3.47226-3.48814,3.48813c-.03809.50229-.08565,1.00269-.13979,1.50183l4.30893-4.309.01587.01587.681-.681Z" style="fill: #fff"/>
        <path d="M66.6728,38.18766c.21757-.07992.43606-.14859.65393-.22495l4.22751-4.22751L73.996,36.177c.39118-.07157.78244-.12822,1.17367-.18836L72.23524,33.0542l8.71225-8.71231L89.88163,33.276l-2.67415,2.67416c.39138.05775.78276.11863,1.17423.18776L90.56263,33.957l3.61761,3.61762q.88254.28284,1.76268.60266l.3181.11611L81.56688,23.59928l-.62272-.61607-15.74588,15.746Z" style="fill: #fff"/>
        <path d="M97.11665,40.51105l2.36554,2.36555-.20534.20534c.57556.00233,1.12167.016,1.656.04251.05738.00285.10979.004.16561.00641L98.479,40.51138Z" style="fill: #fff"/>
      </g>
      <g>
        <path d="M108.5134,120.569c-1.80681-2.44086-4.28674-3.043-7.068-2.95381-1.7549.05629-3.51307.0105-5.72972.0105L97.16353,116.54l-.51314-2.24095H94.74153a12.64613,12.64613,0,0,1-.13264-4.56746c14.59364-4.42109,22.71372-13.875,23.18741-29.34707-1.01232-14.81511-9.0035-23.90607-23.21569-28.14427,0-1.90547-.08375-3.90444.02989-5.89212.07391-1.29285.92592-1.95482,2.29807-2.01243,1.31961-.0554,2.646-.07414,3.96436-.00859,2.95133.14676,5.67907-.25395,7.52758-2.82958,11.72137,5.04479,23.424,18.71937,24.54524,36.45143A44.00673,44.00673,0,0,1,108.5134,120.569Zm-9.44671-7.0952a12.141,12.141,0,0,0,.36715,1.34837c.16095.38653.39718.74169.68635,1.26577.83571-.37766,1.5876-.71743,2.44584-1.10529l-1.1277-2.45244Zm25.07189-22.31532-2.651-.83692-.85607,2.53508,2.60874.89014Zm-2.40576-18.50554,2.71131-.87638-.99535-2.63634-2.48264.9866Zm.77965,12.714-.48015,2.523,2.72955.55389c.15343-.99529.27749-1.8.43106-2.79633Zm-4.04792-26.05021-2.21184,1.693,1.48544,2.12212,2.32059-1.567ZM99.98673,48.83312l2.46359.90029,1.06681-2.50116c-.55148-.24888-.87566-.42643-1.22052-.5426-.39887-.13437-.816-.2147-1.38932-.36015Zm16.80252,8.25359L114.888,55.14034l-2.08372,1.7603,1.90689,2.09012Zm2.15743,8.19217,1.1353,2.44869,2.55111-1.21545-1.22489-2.43235Zm3.3127,31.10022-2.59044-1.2078-1.1926,2.32471,2.35235,1.32261Zm-5.10193,3.26555-1.51953,2.2066,2.20828,1.61983,1.61106-2.2738ZM112.0607,105.581l2.07725,2.06326,1.94178-2.08373-2.15664-1.892Zm-8.31088,5.96422,1.39421,2.48765,2.3605-1.51015-1.45209-2.26532Zm.92518-60.70366,2.3382,1.37749,1.36688-2.43957-2.35134-1.332Zm3.54833,58.09059,1.71655,2.17988,2.11993-1.73007-1.837-2.08088ZM97.58367,48.10426l.72989-2.7479-2.74127-.48583L95.04273,47.472ZM122.59616,77.4182a2.72,2.72,0,0,0,2.68326-.45608l-.3-2.37378-2.74735.45594Zm2.81551,5.35841V80.244h-2.57876v2.53259ZM110.768,51.39963l-1.73482,2.22008,2.06315,1.67246,1.77781-2.12065Z" style="fill: #fff"/>
        <path d="M97.91329,81.10086A16.61222,16.61222,0,1,1,81.5352,64.3392,16.579,16.579,0,0,1,97.91329,81.10086Zm-5.65021-.15431A10.95743,10.95743,0,1,0,81.35417,91.93526,11.058,11.058,0,0,0,92.26308,80.94655Z" style="fill: #fff"/>
        <path d="M83.30884,125.48067v15.09647c1.49549,1.13138,2.81021.07976,4.36876-.22545l.13285,2.42948-4.88732-.40127c-1.40092,3.18871-.68991,6.35426-.91912,9.4548.63027.66987,1.25871,1.32891.74025,2.52069l-1.43079.99971-1.32959-.89353a1.8589,1.8589,0,0,1,.61783-2.524c-.19832-3.18069.37483-6.2791-.61753-9.21306-1.74051-.6067-3.26012-.12169-4.95934.19344V140.3845c1.47466.30785,2.79951,1.26387,4.41827.15447.18-4.85482.0793-9.8594.04516-15.075-4.28916-.585-8.531-.93727-12.44849-2.8489,1.9831,0,3.96621.0053,5.94929-.00152a7.37863,7.37863,0,0,0,5.03306-1.82609,3.96446,3.96446,0,0,0,1.51446-3.28831c-.0814-2.45341-.09018-4.91484.01555-7.36665a21.28027,21.28027,0,0,1,.66047-4.07686,10.11286,10.11286,0,0,1,1.07042-2.06707,7.89412,7.89412,0,0,1,1.84585,5.27025c.0955,2.64173.16859,5.29578.01826,7.9313-.1237,2.16861.99321,3.41363,2.62115,4.42106a7.36438,7.36438,0,0,0,3.97823,1.00827,49.44246,49.44246,0,0,1,5.91193.23479c-.356.15219-.70237.33493-1.06965.45179a40.90883,40.90883,0,0,1-9.60913,1.87731A15.65366,15.65366,0,0,0,83.30884,125.48067Z" style="fill: #fff"/>
        <path d="M67.08782,39.31777a40.14124,40.14124,0,0,1,28.44242-.00935c-1.75194,0-3.50391-.00672-5.25582.00127-5.07974.02315-8.06189,2.95144-8.21147,8.05673-.03991,1.36206-.07682,2.72421-.12757,4.5299l-1.31424.00791s-.02184-1.72939-.03263-2.16715c-.02324-.94232.01441-1.88749-.04132-2.82743-.27871-4.70034-3.20275-7.50992-7.90055-7.5869C70.79417,39.29239,68.94079,39.31777,67.08782,39.31777Z" style="fill: #fff"/>
        <path d="M29.62593,77.94892C30.74719,60.21686,42.4498,46.54228,54.17118,41.49749c1.8485,2.57563,4.57625,2.97634,7.52757,2.82958,1.3184-.06555,2.64476-.04681,3.96436.00859,1.37216.05761,2.22416.71958,2.29808,2.01243.11364,1.98768.02989,3.98665.02989,5.89212-14.2122,4.2382-22.20337,13.32916-23.21569,28.14427.47368,15.47208,8.59377,24.926,23.1874,29.34707a12.64613,12.64613,0,0,1-.13264,4.56746H65.9213L65.40815,116.54l1.44784,1.08573c-2.21664,0-3.97482.04579-5.72972-.0105-2.78125-.0892-5.26117.513-7.068,2.95381A44.00672,44.00672,0,0,1,29.62593,77.94892Zm31.50742,34.58129-1.12769,2.45244c.85824.38786,1.61012.72763,2.44583,1.10529.28917-.52408.5254-.87924.68635-1.26577a12.13651,12.13651,0,0,0,.36715-1.34837ZM39.33141,93.74678l2.60873-.89014c-.3024-.89553-.54979-1.6281-.85607-2.53508l-2.651.83692Zm2.27413-23.62-2.48263-.9866-.99536,2.63634,2.71132.87638ZM37.37876,85.64753c.15357.9963.27762,1.801.43106,2.79633L40.53937,87.89l-.48016-2.523Zm5.13419-24.08265,2.32058,1.567L46.319,61.00973l-2.21184-1.693ZM61.66439,46.3295c-.57337.14545-.99045.22578-1.38932.36015-.34485.11617-.669.29372-1.22052.5426l1.06682,2.50116,2.46359-.90029ZM47.86051,58.99076l1.90689-2.09012-2.08372-1.7603-1.90124,1.94637Zm-6.697,5.089L39.9386,66.51212l2.5511,1.21545L43.625,65.27888Zm.5795,34.73885L44.09535,97.496l-1.1926-2.32471-2.59044,1.2078Zm1.37143,2.37866,1.61107,2.2738,2.20827-1.61983-1.51952-2.2066Zm5.53417,2.47131-2.15663,1.892,1.94177,2.08373L50.511,105.581Zm7.87065,6.58884-1.45208,2.26532,2.36049,1.51015,1.39422-2.48765Zm.0237-61.80988-2.35133,1.332,1.36687,2.43957,2.33821-1.37749Zm-4.1941,58.85356-1.837,2.08088,2.11993,1.73007,1.71655-2.17988ZM67.529,47.472l-.52955-2.60151-2.74128.48583.7299,2.7479ZM40.33961,75.04428l-2.74735-.45594-.3,2.37378a2.72,2.72,0,0,0,2.68326.45608Zm-.60083,7.73233V80.244H37.16v2.53259Zm9.95875-29.60509,1.77781,2.12065,2.06316-1.67246-1.73482-2.22008Z" style="fill: #fff"/>
      </g>
    </g>
  </g>
</svg>
