<svg xmlns="http://www.w3.org/2000/svg" viewBox="0 0 204.40449 204.40449">
  <polygon class="polygon inner" points="129.91 34.893 74.494 34.893 35.309 74.078 35.309 129.494 74.494 168.679 129.91 168.679 169.096 129.494 169.096 74.078 129.91 34.893" style="fill: none;stroke: #fff;stroke-miterlimit: 10;stroke-width: 0.75px;opacity: 0.4"/>
  <polygon class="polygon inner ani" points="129.91 34.893 74.494 34.893 35.309 74.078 35.309 129.494 74.494 168.679 129.91 168.679 169.096 129.494 169.096 74.078 129.91 34.893" style="fill: none;stroke: #fff;stroke-miterlimit: 10;stroke-width: 0.75px;opacity: 0.4"/>
  <rect class="square" x="45.66131" y="45.66111" width="113.08208" height="113.08208" transform="translate(102.20221 -42.33365) rotate(45)" style="fill: none;stroke: #fff;stroke-miterlimit: 10;stroke-width: 0.75px;opacity: 0.15"/>
  <polygon class="polygon outer" points="135.7 21.241 68.704 21.241 21.331 68.614 21.331 135.61 68.704 182.984 135.7 182.984 183.074 135.61 183.074 68.614 135.7 21.241" style="fill: none;stroke: #fff;stroke-miterlimit: 10;stroke-width: 0.75px;opacity: 0.15"/>
  <circle class="orange" cx="102.2127" cy="102.98807" r="55.64531" transform="translate(-2.3117 203.62915) rotate(-89.13214)" style="fill: #cc3c1d;opacity: 0.8"/>
  <g style="opacity: 0.6">
    <path d="M102.21274,149.31309l-46.32539-46.325,46.32539-46.325,46.325,46.325Zm-45.19414-46.325,45.19414,45.19375,45.19375-45.19375L102.21274,57.79434Z" style="fill: #fff"/>
    <path d="M102.21274,145.15371,60.04711,102.98809l42.16563-42.16563,42.16562,42.16563ZM61.17836,102.98809l41.03438,41.03437,41.03437-41.03437L102.21274,61.95371Z" style="fill: #fff"/>
    <path d="M102.21274,136.35371,68.84711,102.98809l33.36563-33.36563,33.36562,33.36563ZM69.97836,102.98809l32.23438,32.23437,32.23437-32.23437L102.21274,70.75371Z" style="fill: #fff"/>
  </g>
  <g>
    <path d="M102.21274,161.0334a58.04532,58.04532,0,1,1,58.04492-58.04531A58.11077,58.11077,0,0,1,102.21274,161.0334Zm0-113.69063a55.64532,55.64532,0,1,0,55.64492,55.64532A55.70815,55.70815,0,0,0,102.21274,47.34277Z" style="fill: #fff"/>
    <path d="M102.21274,165.38809a62.4,62.4,0,1,1,62.4-62.4A62.47049,62.47049,0,0,1,102.21274,165.38809Zm0-124a61.6,61.6,0,1,0,61.6,61.6A61.6697,61.6697,0,0,0,102.21274,41.38809Z" style="fill: #fff;opacity: 0.3"/>
  </g>
  <path d="M110.22529,36.44917l-7.97417-5.42973L94.277,36.44917l-27.90152-.2v60.291a1.13212,1.13212,0,0,1,0,.66045v36.48608c4.08008-1.66118,26.94434-11.06611,27.90152-11.62246V37.57344l5.11176,2.76069V160.03306h5.72471V40.33418l5.111-2.7603V69.58994c.04814.0482.09731.0982.14541.14624-.04785.47261-.09068.8959-.14541,1.43682v2.35308c.00893.0062.01665.0142.02563.02036v6.94179h-.02563v41.94253c1.42378.51953,23.34526,9.35972,27.82529,11.19961V36.44917Z" style="fill: #fff"/>
  <g>
    <rect x="99.58678" y="180.40379" width="5.33253" height="5.33253" transform="translate(159.3993 -18.68384) rotate(45)" style="fill: #fff"/>
    <rect x="109.82048" y="173.43762" width="5.33253" height="5.33253" transform="translate(157.47086 -27.96051) rotate(45)" style="fill: #fff"/>
    <rect x="89.27217" y="173.43762" width="5.33253" height="5.33253" transform="translate(151.45239 -13.43066) rotate(45)" style="fill: #fff"/>
  </g>
</svg>
