<svg xmlns="http://www.w3.org/2000/svg" viewBox="0 0 162.49255 162.49255">
  <rect class="square rorange" x="34.25803" y="33.92131" width="93.97648" height="93.97648" transform="translate(81.00817 -33.75193) rotate(45)" style="fill: #cc3c1d;opacity: 0.8"/>
  <polygon class="polygon inner" points="108.954 14.027 53.538 14.027 14.353 53.212 14.353 108.628 53.538 147.813 108.954 147.813 148.14 108.628 148.14 53.212 108.954 14.027" style="fill: none;stroke: #fff;stroke-miterlimit: 10;stroke-width: 0.75px;opacity: 0.4"/>
  <polygon class="polygon inner ani" points="108.954 14.027 53.538 14.027 14.353 53.212 14.353 108.628 53.538 147.813 108.954 147.813 148.14 108.628 148.14 53.212 108.954 14.027" style="fill: none;stroke: #fff;stroke-miterlimit: 10;stroke-width: 0.75px;opacity: 0.4"/>
  <rect class="square" x="24.70524" y="24.79506" width="113.08208" height="113.08208" transform="translate(81.30979 -33.627) rotate(45)" style="fill: none;stroke: #fff;stroke-miterlimit: 10;stroke-width: 0.75px;opacity: 0.15"/>
  <polygon class="polygon outer" points="114.744 0.375 47.748 0.375 0.375 47.748 0.375 114.744 47.748 162.118 114.744 162.118 162.118 114.744 162.118 47.748 114.744 0.375" style="fill: none;stroke: #fff;stroke-miterlimit: 10;stroke-width: 0.75px;opacity: 0.15"/>
  <g class="doubles">
    <g>
      <path d="M89.70124,57.7869l-7.20251.49837V53.59333c2.32265,1.90435,4.68164,1.946,7.62163,1.21187,1.01107-4.21633.76391-12.51937.76391-12.51937s-.99408-2.24707-1.42694-3.18688l2.99024-2.74972,3.50614,2.97657c-.73831,1.13214-1.28954,1.9774-1.97645,3.03075.47061,3.99591-.82395,8.356.62859,12.04005,3.3166,1.54739,5.62384.7356,8.14125-1.26182v5.63587c-2.30246-.70264-4.54675-1.56148-7.28493-.196,0,1.60694.00208,3.36943-.00035,5.13192q-.02685,19.58514-.06438,39.17024c-.01088,3.43789-.111,6.8822-2.78655,9.76292a8.41858,8.41858,0,0,1-2.86056-6.88914c-.06455-9.60076-.04216-19.20212-.04835-28.80325C89.698,70.82292,89.70124,64.69844,89.70124,57.7869Z" style="fill: #fff"/>
      <path d="M69.769,112.68524c-2.56509-2.69392-2.78329-5.63342-2.78155-8.66535q.01173-20.48358-.01156-40.96718c-.00062-1.48559-.00008-2.97119-.00008-4.53424-2.5892-1.33048-4.99888-.50261-7.52515.19161-.30288-1.81111-.62784-3.36482.40366-5.27785,2.32588,2.02476,4.81474,2.31144,7.91215,1.12216.43416-5.07218,1.22953-10.16764-1.01405-15.79834l3.05034-2.47843,2.8937,2.74433c-2.08961,5.10228-1.332,10.12042-1.12257,14.97685,3.53877,1.66655,4.3415,1.64237,8.19117-.13156,1.00491,1.61491.26508,3.07639-.0309,4.312l-7.08309-.3441c-.09285,1.667-.22493,2.96584-.22844,4.26506q-.05811,21.60564-.05936,43.21134C72.36739,107.94132,72.00045,110.34859,69.769,112.68524Z" style="fill: #fff"/>
      <path d="M119.61129,110.663c3.85315-1.1046,6.33683-3.32711,8.15133-7.60231-3.67491.68991-6.35985,1.147-9.02895,3.247-1.78175,1.40183-2.53579,2.6019-2.43292,4.3301A21.63055,21.63055,0,0,0,119.61129,110.663Z" style="fill: #fff"/>
      <path d="M116.25589,111.5885c-4.75366,1.7294-4.77091,1.766-6.01179,4.91327,4.59946,2.19823,9.34336.45107,12.09707-4.55985l-1.37316-.49405A18.54,18.54,0,0,1,116.25589,111.5885Z" style="fill: #fff"/>
      <path d="M104.55107,122.92154a13.17456,13.17456,0,0,0,2.4254.68335c.39949.06536.80081.115,1.203.15562a13.3696,13.3696,0,0,0,7.2351-3.52492c-5.513-2.90538-9.36753-2.50146-12.91248,1.21249l.56671.96471C103.54767,122.62731,104.10205,122.7565,104.55107,122.92154Z" style="fill: #fff"/>
      <path d="M106.25677,126.02936a19.19,19.19,0,0,0-5.175-2.48265c-.011-.00373-.01964-.00939-.03-.01363a13.209,13.209,0,0,0-3.25309-.37229c.11085.16138.23358.315.3425.47769l-.82371.4815a7.3362,7.3362,0,0,1-.50565-.74512.48.48,0,0,1-.02785-.06643,5.181,5.181,0,0,0-2.68293,1.67869c1.00177,1.84218,4.56154,2.74145,4.66167,2.76812a9.53228,9.53228,0,0,0,2.08487.11218c.61852.00732,1.23706.00371,1.8542-.02679a12.57547,12.57547,0,0,0,1.75294-.32066,14.05882,14.05882,0,0,0,2.49426-.73809c.07214-.03467.14061-.07481.20942-.11444C106.85642,126.457,106.55516,126.24571,106.25677,126.02936Z" style="fill: #fff"/>
      <path d="M39.96932,112.61571c5.19937-2.4397,10.08191-.80111,12.32516,3.872C47.78758,118.75771,45.42488,118.0473,39.96932,112.61571Z" style="fill: #fff"/>
      <path d="M126.74683,84.02254c-1.75523,1.7445-3.316,3.29564-4.82022,4.79066-.24968.5366-.435,1.10927-.60975,1.58082a12.25707,12.25707,0,0,0-.71005,4.42c2.94451.50718,4.33225-1.27248,5.49618-3.19106a8.83133,8.83133,0,0,0,1.14688-7.836A4.71516,4.71516,0,0,0,126.74683,84.02254Z" style="fill: #fff"/>
      <path d="M65.13183,123.52845c-.07562.00063-.15128.00137-.22691.00178a20.77736,20.77736,0,0,0-3.48537.37349,16.192,16.192,0,0,0-4.91838,1.59111L55.237,126.89114c5.85786,2.77054,10.83829,1.83838,12.77744-2.21711-.79591-.42486-1.42-.75028-1.955-.99789Q65.59748,123.58926,65.13183,123.52845Z" style="fill: #fff"/>
      <path d="M93.17079,130.85647c.21033-.10592.42346-.20631.63485-.31107a4.17654,4.17654,0,0,0,.45049-.25375c.006-.004.02243-.01782.04043-.0325a.21.21,0,0,1,.06488-.04442q.08416-.07019.16764-.14124a8.26978,8.26978,0,0,0,.73525-.69342q.0859-.09364.16711-.19137l.03317-.04108c.03494-.04956.06419-.10244.0976-.15275-4.28533-3.34118-7.65908-3.54233-10.62986-.53248,2.50484,1.49485,4.53817,3.75685,7.96018,2.4518A.94339.94339,0,0,1,93.17079,130.85647Z" style="fill: #fff"/>
      <path d="M120.31426,90.41023c-2.40794.73914-4.00191-.55844-5.36091-2.24388-1.66468-2.06453-2.1894-4.61-1.8512-8.51345,4.63447,2.25193,6.976,5.81371,7.11875,10.85555Z" style="fill: #fff"/>
      <path d="M63.75369,121.39655c-4.617-2.54322-5.49859-5.40171-3.79272-11.53663C64.655,112.84506,66.09194,116.97826,63.75369,121.39655Z" style="fill: #fff"/>
      <path d="M117.60205,100.156c-.40744.57316-.4879.48816-1.452.69187-4.32106-3.02225-4.1081-7.24967-2.84211-12.12078C117.40554,91.83015,119.4458,97.56227,117.60205,100.156Z" style="fill: #fff"/>
      <path d="M54.323,123.33091a7.74625,7.74625,0,0,0,2.96085-.18841,6.48872,6.48872,0,0,0,2.03131-1.06876l.37881-.4948c-2.71965-3.45162-12.2651-1.62277-13.39683-.65056C47.95078,120.84051,53.13117,123.23784,54.323,123.33091Z" style="fill: #fff"/>
      <path d="M54.86876,69.70723c-1.20327,5.25428-3.469,8.894-8.83921,9.61991C44.67848,75.08591,47.3009,72.11466,54.86876,69.70723Z" style="fill: #fff"/>
      <path d="M38.72939,72.99685c4.35916,4.95038,4.99211,8.27024,2.3996,12.58607C36.97815,83.068,36.32222,79.6276,38.72939,72.99685Z" style="fill: #fff"/>
      <path d="M44.02521,62.55735c3.17561,5.02868,3.08187,9.31529-.09346,12.56661C40.54542,72.04611,40.52781,69.22622,44.02521,62.55735Z" style="fill: #fff"/>
      <path d="M95.91058,116.042c-2.60013,6.73864-5.12433,8.79812-9.62774,8.13947C86.52807,119.53292,88.67905,117.64689,95.91058,116.042Z" style="fill: #fff"/>
      <path d="M107.33641,103.78136c2.17579,4.59237,3.52938,8.62026.25026,12.775C103.749,114.31677,103.58751,109.92431,107.33641,103.78136Z" style="fill: #fff"/>
      <path d="M48.78674,110.87486c-2.83723-4.89329-2.10621-8.28434,2.44707-12.83587C52.49875,102.64393,53.44836,107.01743,48.78674,110.87486Z" style="fill: #fff"/>
      <path d="M55.05611,116.77614c-4.04171-4.39465-2.04071-8.46041-.28255-12.66876C58.77063,108.49956,58.9308,112.87853,55.05611,116.77614Z" style="fill: #fff"/>
      <path d="M77.60148,127.92333c-3.48825,3.61528-5.63953,4.10089-12.88868,3.11566C69.07742,126.16107,72.592,125.26261,77.60148,127.92333Z" style="fill: #fff"/>
      <path d="M56.43815,60.01766c-.75316,4.94922-2.41788,8.95728-7.71745,10.353C47.50751,65.43305,50.03854,61.9672,56.43815,60.01766Zm-3.964,6.44948-.592-.81284-.918.69019c.16342.21243.361.62128.48381.6A4.0719,4.0719,0,0,0,52.47415,66.46714Z" style="fill: #fff"/>
      <path d="M102.09363,117.0114l-.477-.477.63314-.04122s-.27845-.43577-.15615-.43577h.81447a20.119,20.119,0,0,0-.31574-6.43957c-4.468,2.46879-5.801,5.93236-4.33521,11.74014,2.42306-1.22624,3.80636-2.4612,4.41676-4.34658Z" style="fill: #fff"/>
      <path d="M111.61365,97.09806c1.68408,3.67089,3.63111,6.19064,3.67883,9.09454.03039,1.84926-.775,3.02308-1.35146,4.39715C109.93146,108.07071,109.1657,104.28379,111.61365,97.09806Z" style="fill: #fff"/>
      <path d="M123.64225,72.77018c1.31612,4.93563,2.47121,9.36853-2.02553,12.94778C118.31973,81.63116,118.73285,78.79734,123.64225,72.77018Z" style="fill: #fff"/>
      <path d="M43.57954,102.79173c-5.36945-.06453-7.60944-1.76719-9.7759-7.12806C38.791,94.86914,42.73191,97.64561,43.57954,102.79173Z" style="fill: #fff"/>
      <path d="M119.94493,99.34434a4.987,4.987,0,0,0-1.03911,2.96407,14.72577,14.72577,0,0,0,4.77578-1.09467,17.93159,17.93159,0,0,0,3.1929-2.19215,10.51463,10.51463,0,0,0,1.78116-3.87007A14.01126,14.01126,0,0,0,119.94493,99.34434Zm2.412.101c.01949.00281.335.10131.35448.10654.038.016.27334-.264.31133-.248.07168.0424.00861.59787-.02626.65261a.83983.83983,0,0,1-.28507.21922,2.69108,2.69108,0,0,1-.9495-.32916,11.42555,11.42555,0,0,1,.63644-1.69887" style="fill: #fff"/>
      <path d="M49.357,79.83577c.36983,6.09146-1.66567,9.54853-6.22437,10.57141C41.97333,85.66192,43.8486,82.477,49.357,79.83577Z" style="fill: #fff"/>
      <path d="M66.25914,115.88612c7.03867,1.80309,9.01359,3.5062,9.97292,8.28953C71.99262,124.93,68.86324,122.41605,66.25914,115.88612Z" style="fill: #fff"/>
      <path d="M37.96859,92.954c-3.40876-2.0834-3.59351-4.97327-3.188-8.6,5.60539,2.82255,7.1552,5.26416,6.61468,10.431a2.40236,2.40236,0,0,1-3.35025-1.66048c1.67781-.40252,1.38175.09091.64588-1.39064C38.35645,92.55268,38.21186,92.35862,37.96859,92.954Z" style="fill: #fff"/>
      <path d="M107.41333,69.446c1.20327,5.25428,3.469,8.894,8.83921,9.61991C117.60362,74.82469,114.9812,71.85343,107.41333,69.446Z" style="fill: #fff"/>
      <path d="M118.25688,62.29612c-3.17561,5.02868-3.08186,9.31529.09347,12.56661C121.73668,71.78488,121.75428,68.965,118.25688,62.29612Z" style="fill: #fff"/>
      <path d="M113.5614,70.10938c-5.29958-1.39567-6.9643-5.40373-7.71746-10.35295C112.24355,61.706,114.77459,65.17182,113.5614,70.10938Z" style="fill: #fff"/>
      <rect x="79.22213" y="123.45207" width="4.46598" height="4.46598" transform="translate(-65.01511 94.40977) rotate(-45)" style="fill: #fff"/>
      <path d="M45.69142,110.003c-5.33883.57629-7.76589-.84708-10.55623-5.91132C39.99225,102.708,44.23611,104.99469,45.69142,110.003Z" style="fill: #fff"/>
      <path d="M44.87073,100.60541c-1.35165-5.08582.06542-8.0172,5.0847-11.16628C50.00124,93.91628,49.82506,98.11307,44.87073,100.60541Z" style="fill: #fff"/>
    </g>
  </g>
</svg>
