<svg xmlns="http://www.w3.org/2000/svg" viewBox="0 0 204.40449 204.40449">
  <polygon class="polygon inner" points="129.91 34.893 74.494 34.893 35.309 74.078 35.309 129.494 74.494 168.679 129.91 168.679 169.096 129.494 169.096 74.078 129.91 34.893" style="fill: none;stroke: #fff;stroke-miterlimit: 10;stroke-width: 0.75px;opacity: 0.4"/>
  <polygon class="polygon inner ani" points="129.91 34.893 74.494 34.893 35.309 74.078 35.309 129.494 74.494 168.679 129.91 168.679 169.096 129.494 169.096 74.078 129.91 34.893" style="fill: none;stroke: #fff;stroke-miterlimit: 10;stroke-width: 0.75px;opacity: 0.4"/>
  <rect class="square" x="45.66131" y="45.66111" width="113.08208" height="113.08208" transform="translate(102.20221 -42.33365) rotate(45)" style="fill: none;stroke: #fff;stroke-miterlimit: 10;stroke-width: 0.75px;opacity: 0.15"/>
  <polygon class="polygon outer" points="135.7 21.241 68.704 21.241 21.331 68.614 21.331 135.61 68.704 182.984 135.7 182.984 183.074 135.61 183.074 68.614 135.7 21.241" style="fill: none;stroke: #fff;stroke-miterlimit: 10;stroke-width: 0.75px;opacity: 0.15"/>
  <circle class="orange" cx="102.20241" cy="103.11435" r="52.77734" style="fill: #cc3c1d;opacity: 0.8"/>
  <g>
    <path d="M102.20244,49.337a53.77734,53.77734,0,1,0,53.77735,53.77734A53.838,53.838,0,0,0,102.20244,49.337Zm0,106.55468a52.77734,52.77734,0,1,1,52.77735-52.77734A52.83707,52.83707,0,0,1,102.20244,155.89171Z" style="fill: #fff"/>
    <path d="M146.05454,61.66232c-4.48989-6.18877-2.5874-4.98516-4.82036-10.09727-.53638-1.228-6.1314-9.70034-12.617-11.486.26514.7832.49263,1.45517.821,2.42534-1.90859-1.00381-3.51611-1.69463-4.95527-2.64146-2.31182-1.52094-4.9417-1.83725-7.44512-2.88032-.90967-.379-4.2771-2.95137-5.11518-3.496-.74824-.48633-1.482-.99488-2.22217-1.49356a60.27449,60.27449,0,0,0,10.66934,13.51582,62.40645,62.40645,0,0,0,8.31328,5.97383,70.00045,70.00045,0,0,1,6.96655,3.82451,22.23571,22.23571,0,0,1,5.32446,4.72764,58,58,0,1,1-77.54355,0A22.2349,22.2349,0,0,1,68.755,55.30719a70.00683,70.00683,0,0,1,6.9666-3.82451,62.40977,62.40977,0,0,0,8.31328-5.97383A60.27591,60.27591,0,0,0,94.7042,31.993c-.74019.49868-1.47393,1.00723-2.22217,1.49356-.83808.54467-4.20556,3.117-5.11513,3.496C84.86338,38.0257,82.2335,38.342,79.92178,39.863c-1.43926.94683-3.04668,1.63765-4.95527,2.64146.32832-.97017.55585-1.64214.821-2.42534-6.48564,1.78564-12.08057,10.258-12.617,11.486-2.23291,5.11211-.33047,3.9085-4.82041,10.09727a60.40008,60.40008,0,1,0,87.70444,0Z" style="fill: #fff"/>
  </g>
  <path d="M121.53907,94.59249H118.755c-.19072.5792-.935,1.21753-1.0914,1.69277-.39678-.34834-8.95127-.23369-10.74092-.23369a39.87076,39.87076,0,0,1-2.11445-7.6895,42.98169,42.98169,0,0,1-.52188-8.57339,31.08062,31.08062,0,0,0,.0208-4.2581v-7.518c1.07393-.40928,2.08643-.79517,2.92754-1.11573v-6.1602c-.88584-.31445-2.29687-.60239-3.10791-.89038-.10781.152-1.15176-1.36-1.86445-2.26636-.918.91787-1.47012,1.87012-1.817,2.21685-1.40557.54213-2.52227.69565-3.38086,1.0268v6.08047c1.12549.42031,2.15957.8065,3.01445,1.12573v7.73355s.00781,4.37744.08379,4.3855A36.44789,36.44789,0,0,1,97.51719,96.086h-5.05l-4.32578-.0688c-.42861-.63789-.79707-1.18637-1.09639-1.63183-1.6542.07612-3.0663.14106-4.30976.19829v7.78271H86.376c.76426-.80712,1.49434-1.57827,2.17852-2.30073h6.45019l1.18594,1.18589s.36273,70.36588.1541,74.3521c-.20644,3.94458,1.55913,14.55906,3.49824,19.13853a15.019,15.019,0,0,0,2.1795,3.87754,27.24786,27.24786,0,0,0,1.99433-3.57393c1.799-3.59321,3.39541-17.60855,3.36777-19.07368-.02773-1.47183.1378-73.95757-.12353-74.48662.44549-.238,1.10627-1.56781,1.10627-1.56781s8.59006.31113,8.58142.29764c.673.84893.504,1.46157,1.00791,2.11055h3.7125c0-2.61529.003-5.10557-.01152-7.5958C121.657,94.63326,121.48692,94.53741,121.53907,94.59249Z" style="fill: #fff"/>
  <path d="M158.35479,135.8089H46.04971L102.20244,30.59484ZM56.72,129.4089h90.96445L102.20244,44.187Z" style="fill: #fff"/>
  <g>
    <rect x="87.80225" y="26.67418" width="28.8" height="1.41347" style="fill: #fff"/>
    <path d="M109.59531,20.03146l-7.39316-12.6-7.393,12.6-7.00693-10.8V25.07418h28.8V9.23146Zm-7.39306,3.8a2.2,2.2,0,1,1,2.2-2.2A2.2,2.2,0,0,1,102.20225,23.83146Z" style="fill: #fff"/>
  </g>
  <rect x="135.21045" y="164.11427" width="5.33253" height="5.33253" transform="translate(304.65725 28.90382) rotate(90)" style="fill: #fff"/>
  <rect x="154.77979" y="147.1632" width="5.33253" height="5.33253" transform="translate(307.27552 -7.61658) rotate(90)" style="fill: #fff"/>
  <rect x="118.53688" y="180.1787" width="5.33253" height="5.33253" transform="translate(304.0481 61.64182) rotate(90)" style="fill: #fff"/>
  <rect x="63.03206" y="164.11427" width="5.33253" height="5.33253" transform="translate(232.47886 101.08221) rotate(90)" style="fill: #fff"/>
  <rect x="43.46272" y="147.1632" width="5.33253" height="5.33253" transform="translate(195.95845 103.70048) rotate(90)" style="fill: #fff"/>
  <rect x="79.70563" y="180.1787" width="5.33253" height="5.33253" transform="translate(265.21685 100.47307) rotate(90)" style="fill: #fff"/>
</svg>
