<svg xmlns="http://www.w3.org/2000/svg" viewBox="0 0 162.49255 162.49255">
  <rect class="square rorange" x="34.25803" y="33.92131" width="93.97648" height="93.97648" transform="translate(81.00817 -33.75193) rotate(45)" style="fill: #cc3c1d;opacity: 0.8"/>
  <polygon class="polygon inner" points="108.954 14.027 53.538 14.027 14.353 53.212 14.353 108.628 53.538 147.813 108.954 147.813 148.14 108.628 148.14 53.212 108.954 14.027" style="fill: none;stroke: #fff;stroke-miterlimit: 10;stroke-width: 0.75px;opacity: 0.4"/>
  <polygon class="polygon inner ani" points="108.954 14.027 53.538 14.027 14.353 53.212 14.353 108.628 53.538 147.813 108.954 147.813 148.14 108.628 148.14 53.212 108.954 14.027" style="fill: none;stroke: #fff;stroke-miterlimit: 10;stroke-width: 0.75px;opacity: 0.4"/>
  <rect class="square" x="24.70524" y="24.79506" width="113.08208" height="113.08208" transform="translate(81.30979 -33.627) rotate(45)" style="fill: none;stroke: #fff;stroke-miterlimit: 10;stroke-width: 0.75px;opacity: 0.15"/>
  <polygon class="polygon outer" points="114.744 0.375 47.748 0.375 0.375 47.748 0.375 114.744 47.748 162.118 114.744 162.118 162.118 114.744 162.118 47.748 114.744 0.375" style="fill: none;stroke: #fff;stroke-miterlimit: 10;stroke-width: 0.75px;opacity: 0.15"/>
  <g class="mayhem">
    <g>
      <path d="M78.71342,34.29174V43.252c-1.101.1583-2.21643.30061-3.32617.48333-1.07948.17774-2.16307.34941-3.22665.61106-1.086.26716-2.50909.64053-3.58265.9674C68.53451,45.225,75.33436,37.96043,78.71342,34.29174Z" style="fill: #fff"/>
      <path d="M83.90808,128.01521a68.81168,68.81168,0,0,1-.07948-9.06251c3.445-.19184,10.173-2.1681,10.183-2.12916C94.02288,116.86786,84.07028,127.9,83.90808,128.01521Z" style="fill: #fff"/>
      <path d="M84.02241,41.12519l.00436-4.68012v-2.2294l10.41387,11.2621c-.80377-.223-1.42816-.39322-2.051-.56976-.67635-.1917-1.3511-.39-2.02688-.584-.6338-.182-1.26147-.39923-1.90386-.53321a40.46083,40.46083,0,0,0-4.34707-.50475C84.08016,42.452,84.05128,41.88614,84.02241,41.12519Z" style="fill: #fff"/>
      <path d="M68.94219,116.926c1.11142-.21311,4.63959,1.67712,7.5258,1.71252,1.10569.14238,1.75264.0367,2.75488.17739.086,1.4591.02475,3.00188.0358,4.54121.01081,1.507.00235,3.01414.00235,4.74562-.34549-.34473-.585-.56859-.80885-.80936q-4.56-4.90461-9.11358-9.816A5.25895,5.25895,0,0,1,68.94219,116.926Z" style="fill: #fff"/>
      <path d="M68.94219,116.926l-.00119.00117" style="fill: #fff"/>
      <path d="M34.72636,78.39467c3.71313-3.51756,7.27853-6.839,10.96693-10.09947a42.96163,42.96163,0,0,0-1.99238,10.08747A64.74878,64.74878,0,0,1,34.72636,78.39467Z" style="fill: #fff"/>
      <path d="M45.51522,93.52792a8.03552,8.03552,0,0,1-.6611-.49056q-4.65859-4.23663-9.31111-8.47885c-.27483-.24982-.59137-.46143-1.10475-.85767h9.21992a86.90813,86.90813,0,0,0,1.65287,8.64548A9.68022,9.68022,0,0,1,45.51522,93.52792Z" style="fill: #fff"/>
      <path d="M117.21,93.74361c.4692-1.60868,1.02537-3.2015,1.38337-4.83046.3663-1.66666.53836-3.36877.79935-5.081a62.19539,62.19539,0,0,1,8.70682-.06878c-.07016.16379-.08916.338-.1942.43453q-5.24782,4.822-10.51089,9.63027Z" style="fill: #fff"/>
      <path d="M117.47405,68.97768l-.21486-.56166.18286-.0647.16969.503A1.679,1.679,0,0,0,117.47405,68.97768Z" style="fill: #fff"/>
      <path d="M117.21,68.35518c.4692,1.61577,1.02537,3.2156,1.38337,4.85174.3663,1.674.53836,3.38361.79935,5.10342a61.92346,61.92346,0,0,0,8.70682.06908c-.07016-.16452-.08916-.3395-.1942-.43644q-5.24782-4.84326-10.51089-9.67271Z" style="fill: #fff"/>
      <path d="M138.88839,80.53837v-.19476c-.2918-.24243-.60339-.46485-.87268-.73023q-9.47132-9.333-18.93322-18.67553Q105.20272,47.21976,91.33853,33.486c-3.42182-3.39428-6.79486-6.83776-10.196-10.26471C61.69864,42.49772,42.33163,61.698,22.80984,81.05168c.4823.40478.91815.718,1.29279,1.0924q23.79758,23.78311,47.5849,47.57648,4.08572,4.08573,8.17437,8.16864l1.63215,1.63214,58.18866-58.18866Zm-49.38549,30.19c1.9284.3147,2.94629-.7807,3.79724-2.16064.57489-.93219,1.14984-1.86432,1.75573-2.84674.27521.41656.47168.71405.70142,1.06183a3.50474,3.50474,0,0,0,.8006-.38947c.54828-.48144,1.07013-.99511,1.57794-1.51977a5.11247,5.11247,0,0,1,2.23853-1.49012,4.29075,4.29075,0,0,0,2.23474-1.97375c.35473-.56152.69586-1.13165,1.07672-1.75262q3.82947,2.13245,7.69842,4.28692c-.72418,1.06665-26.02185,26.48438-29.26788,29.40936v-1.08166c.00018-6.18738-.01086-12.37482.0141-18.56207a20.52913,20.52913,0,0,1,.29968-2.45148c2.74011-1.10938,5.20069-2.42224,7.03784-5.13593-.304,1.45874-.54248,2.60285-.77679,3.727C89.0386,110.22557,89.29525,110.50352,89.5029,110.72837ZM110.465,82.13115h22.76935q-10.34619,10.36312-20.78021,20.81439a2.62722,2.62722,0,0,1-.64447-.37592c-2.26312-2.28363-4.51178-4.5816-6.80988-6.92236.40277-1.56067.13245-3.255.22858-4.93164.09674-1.68848-.67487-3.27728-.4137-4.98944.433,1.58764.84247,3.18231,1.31,4.7597a12.17059,12.17059,0,0,0,.80371,1.97675,8.15513,8.15513,0,0,0,.82007,1.12665c1.27008-.67176,1.34723-1.85505,1.55231-2.89045.45355-2.28973.79889-4.60162,1.15259-6.91A11.4684,11.4684,0,0,0,110.465,82.13115Zm23.12738-2.27771c-1.221.26214-18.357.35229-23.09539.13049,0-.36145-1.1471-8.78137-1.1886-8.95642a11.38491,11.38491,0,0,0-.58808-1.49628l.00739.00592-.57807-.6037-.82824.08649-.32581.49762-.37024.8725c-.59527,2.03253-1.19061,4.065-1.85046,6.318a5.65425,5.65425,0,0,1,.13354-2.29364c.20026-1.32684.22309-2.68048.31653-4.02325.0202-.2909.02753-.58265.04077-.874l-.007-.58948-.00782-.29a12.7248,12.7248,0,0,0-.37579-2.48121c.808-.74389,1.605-1.4776,2.402-2.2113l.28955-.286,3.53155-3.466.32856-.32184c.28582-.34.57171-.68.83624-.99475C112.86886,59.10356,133.087,79.41563,133.59237,79.85344ZM82.43759,29.01689c9.75641,9.695,19.36267,19.24084,29.09381,28.9107l-7.96283,4.4986a17.61608,17.61608,0,0,1-1.11945-1.7254,3.23717,3.23717,0,0,0-1.55847-1.42261,13.017,13.017,0,0,1-1.41388-.67969A12.5022,12.5022,0,0,1,98.197,57.48912c-.60852-.54077-1.18884-1.1189-1.8385-1.60443a.9105.9105,0,0,0-.93482-.1341c-.301.20978-.14587.61188-.25079,1.05194-.50385-.79309-.91412-1.43481-1.32019-2.07916a11.23507,11.23507,0,0,0-1.3205-2.03174,4.13779,4.13779,0,0,0-1.84875-.99426,1.52982,1.52982,0,0,0-1.73523.34558c-.49231,1.38507.2785,2.6167.42657,3.952a13.04838,13.04838,0,0,0-6.94214-4.79346C82.43264,47.35087,82.43759,30.01616,82.43759,29.01689Zm-.89588,30.04077a40.1225,40.1225,0,0,1,1.039,4.96484c.23852,1.36029.4627,2.72315.7005,4.08362.20379,1.16565.418,2.32947.611,3.40173,1.52911.73224,2.93915,1.40741,4.46326,2.13715,2.5177-1.45367,5.11584-2.95471,7.715-4.454,1.15686-.66736,2.31293-1.33624,3.478-1.989.11059-.06195.52423-.21161.52423-.21161.041-.08747-.50714.70776-.73749.93811-1.88226,1.8822-3.75787,3.77148-5.66791,5.62518-1.00543.97577-2.07562,1.88464-3.19079,2.89063a9.39745,9.39745,0,0,1,.03668,8.53515c.66968.772,1.42511,1.42706,2.14832,2.12763,2.46905,2.39178,7.32977,7.31109,7.32977,7.31109a23.37263,23.37263,0,0,1-2.203-.9906c-2.478-1.42486-4.92377-2.90576-7.39051-4.35052-.73553-.43079-1.49988-.81232-2.11212-1.14167-1.51825.709-2.88928,1.34919-4.375,2.043-.81012,4.05725-1.6347,8.32019-2.47449,12.54084-.1073-.006-1.59588-8.27771-2.35083-12.52222L74.68167,87.9221C72.66433,89.0745,70.557,90.273,68.455,91.48075c-1.6513.94886-5.42645,2.98676-5.57025,2.99915-.04956.08417,6.295-6.30634,9.34058-9.23437a4.97134,4.97134,0,0,0-.09552-1.17591,9.64085,9.64085,0,0,1,.26886-7.50342c-1.07422-1.06482-2.13562-2.117-3.19715-3.16906q-2.80572-2.78073-5.6076-5.56531a7.08362,7.08362,0,0,1-.53595-.68622s2.299,1.18756,3.40662,1.81537c2.733,1.54895,5.43933,3.14484,8.13269,4.70813,1.52386-.71259,2.98083-1.39386,4.52142-2.11426C79.84414,67.48545,80.77176,63.37657,81.54171,59.05766ZM80.31625,29.26994V51.21562c-3.76044,1.714-4.87573,2.52484-6.51361,4.73633-.189-.8382-.24353-.86829.02789-1.36066a2.54214,2.54214,0,0,0,.37116-2.17,1.47729,1.47729,0,0,0-.6529-.7229c-1.433-.75861-2.8139.33337-3.63562,1.73626-.5075.86658-1.03381,1.72229-1.56189,2.5766-.14392.23285-.32464.44287-.6253.84766l-.3327-1.04535c-.59973-.28479-.97315.22009-1.39044.4704a4.32916,4.32916,0,0,0-.84235.80627,6.41728,6.41728,0,0,1-2.7785,1.97522,2.96692,2.96692,0,0,0-1.69452,1.4859A20.66349,20.66349,0,0,1,59.402,62.40586c-2.51648-1.53808-5.27424-2.78723-7.75727-4.41021Q66.06843,43.5447,80.31625,29.26994ZM50.562,58.91539c2.54577,2.42913,5.03955,4.80871,7.53955,7.19415-.63995,3.28418-.1781,6.53662-.02136,9.79132-.68219-1.77545-.94947-3.64624-1.707-5.37408a2.843,2.843,0,0,0-1.18634-1.61689,2.79725,2.79725,0,0,0-1.41657,2.17786c-.31445,1.34534-.4505,2.73248-.65741,4.10266-.23529,1.55866-.46545,3.1181-.7019,4.7041-.98908.18512-21.08545.23853-22.84919.05377ZM29.54416,82.11692H52.43228c.13745,1.17225.26428,2.356.4173,3.53626a38.93582,38.93582,0,0,0,1.1651,6.31427,2.2069,2.2069,0,0,0,1.14892,1.54126,2.08086,2.08086,0,0,0,1.157-1.4339c.46173-1.29242.82049-2.62213,1.20526-3.94135.15686-.53772.27282-1.0874.46386-1.86016.40638,1.78448-.29174,3.27478-.19079,4.806.10126,1.53534-.1734,3.09259.25738,4.57068-2.46667,2.51544-4.91986,5.017-7.40429,7.55053C43.63125,96.18779,36.65573,89.22026,29.54416,82.11692Zm22.114,21.828q3.70826-2.07385,7.57587-4.23694c.38964.62884.82385,1.30536,1.23315,1.99658a3.7925,3.7925,0,0,0,2.087,1.691,4.94393,4.94393,0,0,1,2.00775,1.3479c.41656.41113.82611.82941,1.2417,1.24152a1.871,1.871,0,0,0,1.57617.68408c.07763-.28778.15741-.58356.2362-.87592.16315.03644.29981.02612.33551.08118.44043.67981.858,1.37445,1.298,2.05456A11.647,11.647,0,0,0,70.54788,109.82a3.17039,3.17039,0,0,0,3.10156.87176c.10852-.11859.33685-.368.63806-.69708q-.34131-1.76449-.68487-3.54016a14.42854,14.42854,0,0,0,7.03021,4.85925c.09326,1.093.26208,2.18219.26666,3.2721.02588,6.19134.01251,12.38281.01251,18.67346C71.13925,123.46635,61.4346,113.74162,51.65811,103.94487Z" style="fill: #fff"/>
    </g>
  </g>
</svg>
