<svg xmlns="http://www.w3.org/2000/svg" viewBox="0 0 204.40449 204.40449">
  <polygon class="polygon inner" points="129.91 34.893 74.494 34.893 35.309 74.078 35.309 129.494 74.494 168.679 129.91 168.679 169.096 129.494 169.096 74.078 129.91 34.893" style="fill: none;stroke: #fff;stroke-miterlimit: 10;stroke-width: 0.75px;opacity: 0.4"/>
  <polygon class="polygon inner ani" points="129.91 34.893 74.494 34.893 35.309 74.078 35.309 129.494 74.494 168.679 129.91 168.679 169.096 129.494 169.096 74.078 129.91 34.893" style="fill: none;stroke: #fff;stroke-miterlimit: 10;stroke-width: 0.75px;opacity: 0.4"/>
  <rect class="square" x="45.66131" y="45.66111" width="113.08208" height="113.08208" transform="translate(102.20221 -42.33365) rotate(45)" style="fill: none;stroke: #fff;stroke-miterlimit: 10;stroke-width: 0.75px;opacity: 0.15"/>
  <polygon class="polygon outer" points="135.7 21.241 68.704 21.241 21.331 68.614 21.331 135.61 68.704 182.984 135.7 182.984 183.074 135.61 183.074 68.614 135.7 21.241" style="fill: none;stroke: #fff;stroke-miterlimit: 10;stroke-width: 0.75px;opacity: 0.15"/>
  <ellipse class="orange" cx="102.19698" cy="102.80163" rx="54.63372" ry="55.24839" style="fill: #cc3c1d;opacity: 0.8"/>
  <path d="M162.98437,102.91l-6.17114-3.026a55.16481,55.16481,0,0,0-15.756-35.73511l3.08809-8.00742-8.208,3.38613a55.10381,55.10381,0,0,0-33.72456-11.97436A55.10381,55.10381,0,0,0,68.48818,59.5276l-8.208-3.38613,3.08809,8.00742A55.16426,55.16426,0,0,0,47.6123,99.884l-6.17119,3.026,6.14385,2.28135a55.161,55.161,0,0,0,15.75332,36.4291l-2.50049,7.64507,7.15551-3.39707a55.12724,55.12724,0,0,0,22.9563,11.08v-3.69058a51.62471,51.62471,0,0,1-21.36181-10.77544l-3.46846,1.78843-1.79756.92686,1.97437-5.72559a51.59451,51.59451,0,0,1-15.1398-35.44189L46.786,102.56881l.759-.35727,3.64356-1.715A51.60951,51.60951,0,0,1,66.649,65.99425L65.1353,62.42311l-1.0605-2.50205,2.58784,1.11621L70.39687,62.648a51.49089,51.49089,0,0,1,31.81587-11.49448A51.49089,51.49089,0,0,1,134.02861,62.648l3.73423-1.61074,2.58784-1.11621-1.0605,2.50205-1.51367,3.57114a51.6096,51.6096,0,0,1,15.4604,34.50225l3.64355,1.715.759.35727-4.37031,1.46148a51.59473,51.59473,0,0,1-15.1398,35.44189l1.97437,5.72559-1.79756-.92686-3.46846-1.78843a51.61219,51.61219,0,0,1-21.88359,10.88731V157.057a55.12022,55.12022,0,0,0,23.47807-11.18848l7.15552,3.39707-2.50049-7.64507a55.16142,55.16142,0,0,0,15.75337-36.4291Z" style="fill: #fff"/>
  <path d="M121.54944,66.82864h-2.78408c-.19072.5792-.935,1.21753-1.09141,1.69278-.39677-.34834-8.95127-.2337-10.74091-.2337a39.86969,39.86969,0,0,1-2.11446-7.6895,42.9817,42.9817,0,0,1-.52187-8.57339,31.08222,31.08222,0,0,0,.0208-4.2581v-7.518c1.07392-.40928,2.08642-.79517,2.92754-1.11572V32.97283c-.88584-.31445-2.29688-.60239-3.10791-.89038-.10782.152-1.15176-1.36-1.86446-2.26636-.918.91787-1.47011,1.87012-1.817,2.21685-1.40556.54214-2.52226.69565-3.38086,1.02681v6.08046c1.12549.42032,2.15957.8065,3.01446,1.12574v7.73354s.00781,4.37744.08378,4.3855a36.448,36.448,0,0,1-2.6455,15.93721h-5.05l-4.32578-.0688c-.42862-.63789-.79707-1.18638-1.09639-1.63184-1.6542.07613-3.06631.14107-4.30977.19829v7.78272h3.64073c.76425-.80713,1.49433-1.57827,2.17851-2.30073h6.4502L96.201,73.48772V88.21888c0,2.53154-.06386,5.06513.01836,7.594.07911,2.43584.01036,8.358.009,8.9311-.02891,12.25494-.02735,40.50679-.02735,40.50679,0,3.99717.36273,8.00284.15411,11.98906-.20645,3.94458,1.55913,14.55906,3.49824,19.13853a15.01874,15.01874,0,0,0,2.17949,3.87754,27.24849,27.24849,0,0,0,1.99434-3.57393c1.799-3.59321,3.39541-17.60854,3.36777-19.07368-.02773-1.47183.00605-34.64556.00605-47.703,0-4.66333-.02109-9.32685.01944-13.98989.00732-.83848-.03369-11.72881-.01533-12.92769.01718-1.11328.12763-8.737-.1337-9.26606.44549-.238,1.10627-1.56781,1.10627-1.56781s8.59006.31113,8.58143.29764c.673.84893.504,1.46158,1.00791,2.11055h3.7125c0-2.61528.003-5.10557-.01152-7.5958C121.66741,66.86941,121.49729,66.77356,121.54944,66.82864Z" style="fill: #fff"/>
  <rect x="116.61249" y="120.14504" width="3.96404" height="3.96404" transform="translate(121.09241 -48.0888) rotate(45)" style="fill: #fff"/>
  <rect x="116.03005" y="103.97832" width="3.96404" height="3.96404" transform="translate(109.49021 -52.41207) rotate(45)" style="fill: #fff"/>
  <rect x="82.86825" y="120.14504" width="3.96404" height="3.96404" transform="translate(111.20895 -24.22801) rotate(45)" style="fill: #fff"/>
  <rect x="82.86825" y="103.97832" width="3.96404" height="3.96404" transform="translate(99.77734 -28.96314) rotate(45)" style="fill: #fff"/>
  <rect x="116.03005" y="89.16424" width="3.96404" height="3.96404" transform="translate(99.01507 -56.75102) rotate(45)" style="fill: #fff"/>
  <rect x="82.86825" y="89.16424" width="3.96404" height="3.96404" transform="translate(89.30221 -33.30208) rotate(45)" style="fill: #fff"/>
  <path d="M162.98437,102.91l-6.17114-3.026a55.16481,55.16481,0,0,0-15.756-35.73511l3.08809-8.00742-8.208,3.38613a55.10381,55.10381,0,0,0-33.72456-11.97436A55.10381,55.10381,0,0,0,68.48818,59.5276l-8.208-3.38613,3.08809,8.00742A55.16426,55.16426,0,0,0,47.6123,99.884l-6.17119,3.026,6.14385,2.28135a55.161,55.161,0,0,0,15.75332,36.4291l-2.50049,7.64507,7.15551-3.39707a55.12724,55.12724,0,0,0,22.9563,11.08v-3.69058a51.62471,51.62471,0,0,1-21.36181-10.77544l-3.46846,1.78843-1.79756.92686,1.97437-5.72559a51.59451,51.59451,0,0,1-15.1398-35.44189L46.786,102.56881l.759-.35727,3.64356-1.715A51.60951,51.60951,0,0,1,66.649,65.99425L65.1353,62.42311l-1.0605-2.50205,2.58784,1.11621L70.39687,62.648a51.49089,51.49089,0,0,1,31.81587-11.49448A51.49089,51.49089,0,0,1,134.02861,62.648l3.73423-1.61074,2.58784-1.11621-1.0605,2.50205-1.51367,3.57114a51.6096,51.6096,0,0,1,15.4604,34.50225l3.64355,1.715.759.35727-4.37031,1.46148a51.59473,51.59473,0,0,1-15.1398,35.44189l1.97437,5.72559-1.79756-.92686-3.46846-1.78843a51.61219,51.61219,0,0,1-21.88359,10.88731V157.057a55.12022,55.12022,0,0,0,23.47807-11.18848l7.15552,3.39707-2.50049-7.64507a55.16142,55.16142,0,0,0,15.75337-36.4291Z" style="fill: #fff"/>
</svg>
