<svg xmlns="http://www.w3.org/2000/svg" viewBox="0 0 162.49255 162.49255">
  <title>Asset 9</title>
  <g id="Layer_2" data-name="Layer 2">
    <g id="Layer_3" data-name="Layer 3">
      <rect id="square-rorange" x="34.25803" y="33.92131" width="93.97648" height="93.97648" transform="translate(81.00817 -33.75193) rotate(45)" style="fill: #cc3c1d;opacity: 0.8"/>
      <polygon id="polygon-inner" points="108.954 14.027 53.538 14.027 14.353 53.212 14.353 108.628 53.538 147.813 108.954 147.813 148.14 108.628 148.14 53.212 108.954 14.027" style="fill: none;stroke: #fff;stroke-miterlimit: 10;stroke-width: 0.75px;opacity: 0.4"/>
      <rect id="square" x="24.70524" y="24.79506" width="113.08208" height="113.08208" transform="translate(81.30979 -33.627) rotate(45)" style="fill: none;stroke: #fff;stroke-miterlimit: 10;stroke-width: 0.75px;opacity: 0.15"/>
      <polygon id="polygon-outer" points="114.744 0.375 47.748 0.375 0.375 47.748 0.375 114.744 47.748 162.118 114.744 162.118 162.118 114.744 162.118 47.748 114.744 0.375" style="fill: none;stroke: #fff;stroke-miterlimit: 10;stroke-width: 0.75px;opacity: 0.15"/>
    </g>
    <g id="mayhem">
      <g>
        <path d="M80.76081,118.12034c-.005-1.19861-.1907-2.39643-.29327-3.59847a15.86768,15.86768,0,0,1-7.73144-5.34394q.37727,1.94976.75319,3.89328c-.33125.36186-.58236.63619-.7017.76661a3.48662,3.48662,0,0,1-3.41093-.95872,12.80823,12.80823,0,0,1-1.42785-2.07981c-.48389-.748-.94314-1.51188-1.4275-2.2595-.03927-.06054-.18956-.0492-.369-.08927-.08666.32152-.17439.6468-.25977.96328a2.05766,2.05766,0,0,1-1.73338-.75231c-.457-.45322-.90744-.91321-1.36556-1.36535a5.43707,5.43707,0,0,0-2.208-1.48235,4.1708,4.1708,0,0,1-2.29521-1.85965c-.45013-.76017-.92764-1.50416-1.35615-2.19573q-4.26159,2.38331-8.33153,4.65955C59.35437,117.1919,70.027,127.88662,80.77457,138.65639,80.77457,131.73828,80.78927,124.92925,80.76081,118.12034ZM78.95889,132.9855c-.37992-.37911-.64338-.62532-.88952-.89012q-5.0148-5.39378-10.02262-10.79515a5.78351,5.78351,0,0,1-.436-.60632c1.22231-.23433,5.10237,1.84441,8.27648,1.88334,1.216.1566,1.92744.04034,3.02967.19506.09465,1.60465.02726,3.30132.0394,4.99423C78.96822,129.42381,78.95889,131.08128,78.95889,132.9855Z" style="fill: #fff"/>
        <path d="M114.7541,104.90555a2.88973,2.88973,0,0,0,.70876.41341q11.511-11.52992,22.85294-22.89053H113.27531a12.61053,12.61053,0,0,1-.01282,1.82306c-.389,2.5386-.76876,5.08109-1.26755,7.59921-.22553,1.13868-.31038,2.44-1.70714,3.17875a8.96689,8.96689,0,0,1-.90187-1.239,13.38444,13.38444,0,0,1-.88388-2.17392c-.51416-1.73473-.96449-3.48846-1.44066-5.23446-.28722,1.88294.56135,3.63022.455,5.48711-.10572,1.84387.19157,3.70721-.25138,5.42355C109.79229,99.867,112.26524,102.39413,114.7541,104.90555Zm7.4604-15.01867c.40281-1.83286.5921-3.70479.879-5.5878a68.38744,68.38744,0,0,1,9.57531-.07564c-.07719.18009-.09807.37172-.21358.47785q-5.77125,5.303-11.55928,10.59088l-.20284-.093C121.20913,93.43,121.82083,91.67833,122.2145,89.88688Z" style="fill: #fff"/>
        <path d="M84.07226,91.05831c1.63391-.763,3.1417-1.467,4.81138-2.24674.67332.3622,1.5139.78178,2.3228,1.25554,2.71278,1.58887,5.40247,3.21748,8.12767,4.78447a25.70483,25.70483,0,0,0,2.42274,1.0894s-5.34555-5.41-8.06088-8.04034c-.79534-.77044-1.62613-1.4908-2.3626-2.33984a10.33484,10.33484,0,0,0-.04034-9.3865c1.2264-1.10632,2.40334-2.10585,3.50906-3.179,2.10055-2.0386,4.16324-4.11633,6.23325-6.18627.25333-.25332.85616-1.12787.811-1.03168,0,0-.45489.16458-.57652.23271-1.28124.71789-2.55262,1.45349-3.82487,2.18741-2.85837,1.64888-5.71567,3.29964-8.4845,4.89831-1.67613-.80252-3.22681-1.545-4.90845-2.35031-.21224-1.17922-.44784-2.45913-.672-3.741-.26151-1.49618-.50805-2.995-.77037-4.49094a44.1251,44.1251,0,0,0-1.14263-5.46007c-.84676,4.7497-1.8669,9.26843-2.66473,13.74373-1.69425.79225-3.29655,1.54148-4.97241,2.32515-2.962-1.71923-5.93831-3.4743-8.94389-5.17775-1.21808-.69043-3.74641-1.99644-3.74641-1.99644a7.791,7.791,0,0,0,.58941.75466Q64.80356,69.772,67.896,72.82324c1.1674,1.157,2.33467,2.31414,3.516,3.48517a10.60253,10.60253,0,0,0-.29568,8.25185,5.46657,5.46657,0,0,1,.10505,1.29319c-3.34937,3.2201-10.32676,10.248-10.27225,10.15546.15814-.01362,4.30984-2.2548,6.12586-3.29829,2.31165-1.32823,4.62921-2.64626,6.84776-3.91362l4.84287,2.28179C79.59588,95.74666,81.233,104.84346,81.351,104.85,82.2745,100.2084,83.18133,95.52026,84.07226,91.05831Z" style="fill: #fff"/>
        <path d="M55.63917,97.29573c-.47375-1.62552-.1717-3.3381-.28306-5.02658-.111-1.684.65674-3.32293.20983-5.28541-.21009.84985-.33763,1.45436-.51014,2.04571-.42314,1.4508-.81769,2.91314-1.32548,4.33448a2.28839,2.28839,0,0,1-1.27245,1.57692,2.427,2.427,0,0,1-1.26352-1.695A42.82006,42.82006,0,0,1,49.913,86.30177c-.16828-1.298-.30776-2.59981-.45892-3.889H24.283c7.82092,7.81186,15.49222,15.47436,23.21332,23.18661C50.22858,102.81318,52.92646,100.06208,55.63917,97.29573ZM41.12,94.42246q-5.12325-4.65918-10.23984-9.32454c-.30225-.27474-.65035-.50746-1.21492-.94322H39.80483a95.59135,95.59135,0,0,0,1.81776,9.50779,10.64249,10.64249,0,0,1,.22453,1.2995A8.83938,8.83938,0,0,1,41.12,94.42246Z" style="fill: #fff"/>
        <path d="M72.95606,53.638c1.80125-2.43207,3.02779-3.3238,7.16332-5.20875V24.29457Q64.41035,40.0332,48.588,55.88553c2.7307,1.78487,5.76353,3.15861,8.531,4.85012a22.72453,22.72453,0,0,0,1.41368-2.03947,3.26289,3.26289,0,0,1,1.86353-1.63412,7.05729,7.05729,0,0,0,3.05565-2.17223,4.76069,4.76069,0,0,1,.92637-.8867c.45892-.27527.86958-.83052,1.52913-.51732l.36589,1.14962c.33065-.44516.5294-.67613.68767-.93221.58075-.93952,1.15956-1.88059,1.71768-2.8336.90368-1.54282,2.42234-2.74372,3.99826-1.90945a1.6247,1.6247,0,0,1,.718.795,2.7957,2.7957,0,0,1-.40818,2.38642C72.68824,52.68309,72.74818,52.71618,72.95606,53.638ZM71.15025,40.87485c-1.19432.2938-2.75936.70439-3.94,1.0639-.04779-.09766,7.43033-8.08685,11.1464-12.12149v9.854c-1.21084.17412-2.43751.33065-3.65794.53155C73.51158,40.39828,72.31987,40.5871,71.15025,40.87485Z" style="fill: #fff"/>
        <path d="M47.39726,56.897,24.30234,80.02784c1.93966.20318,24.04055.14445,25.12828-.05914.26-1.74419.51315-3.45919.77191-5.17331.22755-1.50685.37717-3.03236.723-4.51188a3.07625,3.07625,0,0,1,1.55786-2.39509,3.12659,3.12659,0,0,1,1.30467,1.77816c.83313,1.90019,1.12706,3.95758,1.8773,5.91012-.17237-3.57934-.68029-7.1562.02349-10.768C52.93948,62.18537,50.197,59.56844,47.39726,56.897ZM39.85181,78.30606a71.20858,71.20858,0,0,1-9.86971.01323c4.0835-3.86844,8.00456-7.52115,12.06081-11.10687A47.2495,47.2495,0,0,0,39.85181,78.30606Z" style="fill: #fff"/>
        <path d="M82.44687,48.41372a14.35,14.35,0,0,1,7.63459,5.27158c-.16285-1.46852-1.01054-2.823-.46913-4.34622a1.68241,1.68241,0,0,1,1.90831-.38005,4.55047,4.55047,0,0,1,2.03316,1.09343,12.35555,12.35555,0,0,1,1.45221,2.2344c.44657.70862.89777,1.41435,1.45187,2.28655.11539-.484-.05524-.92617.27581-1.15687a1.00129,1.00129,0,0,1,1.02806.14747c.71446.534,1.35267,1.16975,2.02188,1.76447a13.75272,13.75272,0,0,0,1.40744,1.22,14.315,14.315,0,0,0,1.55491.74748,3.56011,3.56011,0,0,1,1.71392,1.5645A19.37244,19.37244,0,0,0,105.691,60.758l8.75709-4.94731C103.74631,45.1763,93.18187,34.67832,82.45231,24.01628,82.45231,25.11522,82.44687,44.179,82.44687,48.41372ZM84.2,32.18536V29.73362c3.87784,4.19365,7.5731,8.1899,11.45262,12.38543-.88395-.2452-1.57062-.43241-2.25561-.6266-.74379-.21083-1.48584-.42885-2.229-.6423-.69708-.20016-1.3873-.43905-2.09377-.58639a44.50783,44.50783,0,0,0-4.78071-.555c-.03477-.91723-.06652-1.53953-.09827-2.37642Q84.19765,34.7589,84.2,32.18536Z" style="fill: #fff"/>
        <path d="M114.28625,106.417q-4.24747-2.36527-8.4663-4.71452c-.41885.68291-.794,1.30991-1.18412,1.92744a4.71877,4.71877,0,0,1-2.45765,2.17063,5.62243,5.62243,0,0,0-2.4618,1.63874c-.55847.577-1.13237,1.1419-1.73534,1.67137a3.85507,3.85507,0,0,1-.88045.42831c-.25265-.38247-.46872-.70963-.77138-1.16774-.66633,1.08041-1.29863,2.10552-1.93087,3.13069-.93583,1.51758-2.05524,2.72224-4.176,2.37616-.22836-.24729-.51061-.553-.89267-.96678.25768-1.23634.51993-2.49456.85427-4.09881-2.0204,2.98437-4.72641,4.42818-7.73983,5.64821a22.57664,22.57664,0,0,0-.32958,2.696c-.02745,6.80441-.0153,13.609-.0155,20.41356v1.18955C85.66885,135.54309,113.48984,107.59007,114.28625,106.417ZM84.06951,132.88918a75.6856,75.6856,0,0,1-.08747-9.96645c3.78863-.211,11.18775-2.38434,11.19869-2.34152C95.19315,120.62994,84.24785,132.76245,84.06951,132.88918Z" style="fill: #fff"/>
        <path d="M115.25269,56.85432c-.29091.34615-.60531.72-.91965,1.094l-.36132.35394L110.0879,62.114l-.31843.31454c-.87649.80689-1.753,1.61377-2.64156,2.43187a13.99362,13.99362,0,0,1,.41328,2.72869l.00859.3189.00765.64828c-.01457.32044-.02262.64129-.04484.9612-.10276,1.47671-.12787,2.96537-.3481,4.42456a6.21821,6.21821,0,0,0-.14686,2.52242c.72566-2.47772,1.38038-4.71292,2.035-6.94819l.40717-.95952.35831-.54726.91086-.09511.63572.66391-.00812-.00651a12.52081,12.52081,0,0,1,.64673,1.64553c.04564.19251,1.30716,9.45227,1.30716,9.84978,5.211.24392,24.05625.14478,25.39905-.14351C138.15376,79.44205,115.919,57.104,115.25269,56.85432Zm7.84086,21.3722c-.28695-1.89133-.47624-3.77151-.879-5.6125-.39367-1.7993-1.00537-3.55873-1.52134-5.33562l.20284-.09343q5.78283,5.316,11.55928,10.63754c.11551.10659.13639.299.21358.48A68.09692,68.09692,0,0,1,123.09355,78.22652Z" style="fill: #fff"/>
      </g>
    </g>
  </g>
</svg>
