
<svg xmlns="http://www.w3.org/2000/svg" viewBox="0 0 954.854 954.854">
    <path d="M533.05225,532.05176H421.80176V420.80225H533.05225Zm-109.25049-2H531.05225V422.80225H423.80176Z"/>
    <path d="M422.80176,488.76172l-12.33447-12.33447,12.33447-12.33448,12.33447,12.33448Zm-9.50635-12.33447,9.50635,9.50634,9.50635-9.50634-9.50635-9.50635Z"/>
    <path d="M532.05225,488.76172l-12.335-12.33447,12.335-12.33448,12.334,12.33448Zm-9.50684-12.33447,9.50684,9.50634,9.50586-9.50634-9.50586-9.50635Z"/>
    <path d="M477.42725,434.13672l-12.335-12.33447,12.335-12.33448,12.334,12.33448Zm-9.50684-12.33447,9.50684,9.50634,9.50586-9.50634-9.50586-9.50635Z"/>
    <path d="M477.42725,543.38672l-12.335-12.335,12.335-12.334,12.334,12.334Zm-9.50684-12.335,9.50684,9.50683,9.50586-9.50683-9.50586-9.50586Z"/>
    <path d="M477.42725,482.29a5.8628,5.8628,0,1,1,5.8623-5.86279A5.86934,5.86934,0,0,1,477.42725,482.29Zm0-9.72559a3.8628,3.8628,0,1,0,3.8623,3.8628A3.86768,3.86768,0,0,0,477.42725,472.56445Z"/>
    <path d="M532.05225,426.877a5.075,5.075,0,1,1,5.07519-5.0747A5.08038,5.08038,0,0,1,532.05225,426.877Zm0-8.1499a3.075,3.075,0,1,0,3.07519,3.0752A3.07883,3.07883,0,0,0,532.05225,418.72705Z"/>
    <g>
      <polygon points="524.927 523.927 523.427 523.927 523.427 522.927 523.927 522.927 523.927 522.427 524.927 522.427 524.927 523.927"/>
      <path d="M521.46924,523.92676h-1.957v-1h1.957Zm-3.915,0h-1.957v-1h1.957Zm-3.915,0h-1.957v-1h1.957Zm-3.915,0h-1.957v-1h1.957Zm-3.91406,0h-1.958v-1h1.958Zm-3.915,0h-1.958v-1h1.958Zm-3.915,0h-1.958v-1h1.958Zm-3.915,0h-1.957v-1h1.957Zm-3.915,0h-1.957v-1h1.957Zm-3.915,0h-1.957v-1h1.957Zm-3.915,0h-1.957v-1h1.957Zm-3.91406,0h-1.958v-1h1.958Zm-3.915,0h-1.958v-1h1.958Zm-3.915,0h-1.958v-1h1.958Zm-3.915,0h-1.957v-1h1.957Zm-3.915,0h-1.957v-1h1.957Zm-3.915,0h-1.957v-1h1.957Zm-3.91407,0h-1.958v-1h1.958Zm-3.91552,0h-1.95752v-1H451.001Zm-3.91455,0h-1.95752v-1h1.95752Zm-3.915,0h-1.95752v-1h1.95752Zm-3.915,0h-1.95752v-1h1.95752Zm-3.915,0h-1.957v-1h1.957Z"/>
      <polygon points="431.427 523.927 429.927 523.927 429.927 522.427 430.927 522.427 430.927 522.927 431.427 522.927 431.427 523.927"/>
      <path d="M430.92676,520.46973h-1v-1.957h1Zm0-3.915h-1v-1.957h1Zm0-3.915h-1v-1.957h1Zm0-3.915h-1v-1.957h1Zm0-3.91406h-1v-1.958h1Zm0-3.915h-1v-1.958h1Zm0-3.915h-1v-1.958h1Zm0-3.915h-1v-1.95752h1Zm0-3.915h-1v-1.957h1Zm0-3.91455h-1v-1.95752h1Zm0-3.915h-1v-1.95752h1Zm0-3.915h-1v-1.95752h1Zm0-3.91455h-1v-1.95752h1Zm0-3.915h-1v-1.95752h1Zm0-3.915h-1v-1.95752h1Zm0-3.915h-1v-1.957h1Zm0-3.91455h-1V455.874h1Zm0-3.915h-1V451.959h1Zm0-3.915h-1v-1.957h1Zm0-3.91455h-1v-1.95752h1Zm0-3.915h-1v-1.95752h1Zm0-3.915h-1v-1.957h1Zm0-3.91455h-1v-1.95752h1Z"/>
      <polygon points="430.927 430.427 429.927 430.427 429.927 428.927 431.427 428.927 431.427 429.927 430.927 429.927 430.927 430.427"/>
      <path d="M521.46924,429.92725h-1.957v-1h1.957Zm-3.915,0h-1.957v-1h1.957Zm-3.915,0h-1.957v-1h1.957Zm-3.91406,0h-1.958v-1h1.958Zm-3.915,0h-1.958v-1h1.958Zm-3.915,0h-1.957v-1h1.957Zm-3.915,0h-1.957v-1h1.957Zm-3.915,0h-1.957v-1h1.957Zm-3.915,0h-1.957v-1h1.957Zm-3.915,0h-1.957v-1h1.957Zm-3.91406,0h-1.958v-1h1.958Zm-3.915,0h-1.958v-1h1.958Zm-3.915,0h-1.957v-1h1.957Zm-3.915,0h-1.957v-1h1.957Zm-3.915,0h-1.957v-1h1.957Zm-3.915,0h-1.957v-1h1.957Zm-3.91407,0h-1.958v-1h1.958Zm-3.915,0h-1.958v-1h1.958Zm-3.915,0H449.044v-1h1.95751Zm-3.915,0h-1.95752v-1h1.95752Zm-3.915,0h-1.95752v-1h1.95752Zm-3.91455,0h-1.95752v-1h1.95752Zm-3.915,0h-1.95752v-1h1.95752Z"/>
      <polygon points="524.927 430.427 523.927 430.427 523.927 429.927 523.427 429.927 523.427 428.927 524.927 428.927 524.927 430.427"/>
      <path d="M524.92725,520.46973h-1v-1.957h1Zm0-3.915h-1v-1.957h1Zm0-3.91406h-1v-1.958h1Zm0-3.915h-1v-1.958h1Zm0-3.915h-1v-1.958h1Zm0-3.915h-1v-1.958h1Zm0-3.915h-1v-1.957h1Zm0-3.915h-1v-1.957h1Zm0-3.91455h-1v-1.95752h1Zm0-3.915h-1v-1.95752h1Zm0-3.915h-1v-1.95752h1Zm0-3.91455h-1v-1.95752h1Zm0-3.915h-1v-1.95752h1Zm0-3.915h-1v-1.95752h1Zm0-3.915h-1v-1.957h1Zm0-3.91455h-1v-1.95752h1Zm0-3.915h-1V455.874h1Zm0-3.915h-1v-1.957h1Zm0-3.91455h-1v-1.95752h1Zm0-3.915h-1v-1.95752h1Zm0-3.915h-1v-1.95752h1Zm0-3.91456h-1V436.2998h1Zm0-3.915h-1v-1.95752h1Z"/>
    </g>
    <g>
      <polygon points="501.927 500.927 500.427 500.927 500.427 499.927 500.927 499.927 500.927 499.427 501.927 499.427 501.927 500.927"/>
      <path d="M498.42725,500.92676h-2v-1h2Zm-4,0h-2v-1h2Zm-4,0h-2v-1h2Zm-4,0h-2v-1h2Zm-4,0h-2v-1h2Zm-4,0h-2v-1h2Zm-4,0h-2v-1h2Zm-4,0h-2v-1h2Zm-4,0h-2v-1h2Zm-4,0h-2v-1h2Zm-4,0h-2v-1h2Z"/>
      <polygon points="454.427 500.927 452.927 500.927 452.927 499.427 453.927 499.427 453.927 499.927 454.427 499.927 454.427 500.927"/>
      <path d="M453.92725,497.42676h-1v-2h1Zm0-4h-1v-2h1Zm0-4h-1v-2h1Zm0-4h-1v-2h1Zm0-4h-1v-2h1Zm0-4h-1v-2h1Zm0-4h-1v-2h1Zm0-4h-1v-2h1Zm0-4h-1v-2h1Zm0-4h-1v-2h1Zm0-4h-1v-2h1Z"/>
      <polygon points="453.927 453.427 452.927 453.427 452.927 451.927 454.427 451.927 454.427 452.927 453.927 452.927 453.927 453.427"/>
      <path d="M498.42725,452.92725h-2v-1h2Zm-4,0h-2v-1h2Zm-4,0h-2v-1h2Zm-4,0h-2v-1h2Zm-4,0h-2v-1h2Zm-4,0h-2v-1h2Zm-4,0h-2v-1h2Zm-4,0h-2v-1h2Zm-4,0h-2v-1h2Zm-4,0h-2v-1h2Zm-4,0h-2v-1h2Z"/>
      <polygon points="501.927 453.427 500.927 453.427 500.927 452.927 500.427 452.927 500.427 451.927 501.927 451.927 501.927 453.427"/>
      <path d="M501.92725,497.42676h-1v-2h1Zm0-4h-1v-1.99951h1Zm0-3.99951h-1v-2h1Zm0-4h-1v-2h1Zm0-4h-1v-2h1Zm0-4h-1v-2h1Zm0-4h-1v-2h1Zm0-4h-1v-2h1Zm0-4h-1v-2h1Zm0-4h-1v-2h1Zm0-4h-1v-2h1Z"/>
    </g>
    <g>
      <polygon points="510.074 477.488 509.367 476.781 509.72 476.427 509.367 476.073 510.074 475.366 511.134 476.427 510.074 477.488"/>
      <path d="M479.86084,507.7002l-.707-.707,1.373-1.373.707.707Zm2.74609-2.7461-.707-.707,1.374-1.374.707.707ZM485.354,502.207l-.707-.707,1.373-1.373.707.707Zm2.7461-2.74707-.707-.707,1.374-1.373.707.707Zm2.74707-2.74609-.707-.707,1.373-1.37305.707.707Zm2.74609-2.74707-.707-.707,1.374-1.373.707.707Zm2.74707-2.7461-.707-.707,1.373-1.37353.707.707Zm2.7461-2.74658-.707-.707,1.374-1.37354.707.707Zm2.74707-2.74658-.707-.707,1.373-1.37354.707.707Zm2.74609-2.74658-.707-.707,1.374-1.37354.707.707Zm2.74707-2.74658-.707-.707,1.37305-1.37353.707.707Z"/>
      <polygon points="477.427 510.134 476.367 509.073 477.074 508.366 477.427 508.72 477.781 508.366 478.488 509.073 477.427 510.134"/>
      <path d="M474.99268,507.7002l-1.37305-1.373.707-.707,1.373,1.373Zm-2.7461-2.74707-1.374-1.373.707-.707,1.374,1.373Zm-2.74707-2.7461-1.373-1.373.707-.707,1.373,1.373ZM466.75342,499.46l-1.374-1.37305.707-.707,1.374,1.373Zm-2.74707-2.74609-1.373-1.373.707-.707,1.373,1.37305Zm-2.7461-2.74707-1.374-1.373.707-.707,1.374,1.373Zm-2.74707-2.7461-1.373-1.37353.707-.707,1.373,1.37353Zm-2.74609-2.74658-1.374-1.37353.707-.707,1.374,1.37354ZM453.02,485.72754l-1.373-1.37354.707-.707,1.37305,1.37354Zm-2.74658-2.74707-1.373-1.37305.707-.707,1.37305,1.373Zm-2.74658-2.74658-1.373-1.373.707-.707,1.373,1.373Z"/>
      <polygon points="444.781 477.488 443.72 476.427 444.781 475.366 445.488 476.073 445.134 476.427 445.488 476.781 444.781 477.488"/>
      <path d="M446.86084,474.7002l-.707-.707,1.373-1.37353.707.707Zm2.74658-2.74659-.707-.707,1.373-1.37353.707.707ZM452.354,469.207l-.707-.707,1.373-1.37354.707.707Zm2.7461-2.74658-.707-.707,1.374-1.37354.707.707Zm2.74707-2.74658-.707-.707,1.373-1.37354.707.707Zm2.74609-2.74658-.707-.707,1.374-1.37353.707.707Zm2.74707-2.74659-.707-.707,1.373-1.37353.707.707Zm2.7461-2.74658-.707-.707,1.374-1.37354.707.707Zm2.74707-2.74658-.707-.707,1.373-1.37354.707.707Zm2.74609-2.74707-.707-.707,1.374-1.373.707.707Zm2.74707-2.74658-.707-.707,1.37305-1.373.707.707Z"/>
      <polygon points="477.781 444.488 477.427 444.134 477.074 444.488 476.367 443.781 477.427 442.72 478.488 443.781 477.781 444.488"/>
      <path d="M507.99268,474.7002l-1.37305-1.373.707-.707,1.373,1.373Zm-2.7461-2.74659-1.374-1.373.707-.707,1.374,1.373Zm-2.74707-2.74658-1.373-1.373.707-.707,1.373,1.373Zm-2.74609-2.74658-1.374-1.37354.707-.707,1.374,1.37354Zm-2.74707-2.74658-1.373-1.37354.707-.707,1.373,1.37354Zm-2.7461-2.74658-1.374-1.37354.707-.707,1.374,1.37353Zm-2.74707-2.74659-1.373-1.37353.707-.707,1.373,1.37353Zm-2.74609-2.74658-1.374-1.37353.707-.707,1.374,1.37354ZM486.02,452.72754l-1.373-1.37354.707-.707,1.37305,1.37354Zm-2.74609-2.74658-1.374-1.37354.707-.707,1.374,1.37354Zm-2.74707-2.74658-1.373-1.37354.707-.707,1.373,1.37353Z"/>
    </g>
    <g>
      <polygon points="515.074 439.488 514.367 438.781 514.72 438.427 514.367 438.073 515.074 437.366 516.134 438.427 515.074 439.488"/>
      <path d="M479.95068,474.60986l-.707-.707,1.46387-1.46338.707.707Zm2.92676-2.92675-.707-.707,1.46387-1.46337.707.707Zm2.92676-2.92676-.707-.707,1.46387-1.46338.707.707Zm2.92773-2.92676-.707-.707,1.46289-1.46338.707.707Zm2.92676-2.92676-.707-.707,1.46289-1.46338.707.707Zm2.92676-2.92724-.707-.707,1.46289-1.46337.707.707Zm2.92676-2.92676-.707-.707,1.46289-1.46338.707.707Zm2.92675-2.92676-.707-.707,1.46387-1.46338.707.707Zm2.92676-2.92676-.707-.707,1.46387-1.46338.707.707Zm2.92676-2.92676-.707-.707,1.46387-1.46386.707.707Zm2.92676-2.92724-.707-.707,1.46386-1.46338.707.707Zm2.92676-2.92676-.707-.707,1.46387-1.46338.707.707Z"/>
      <polygon points="477.427 477.135 476.367 476.073 477.074 475.366 477.427 475.72 477.781 475.366 478.488 476.073 477.427 477.135"/>
      <path d="M474.90283,474.60986l-1.46387-1.46338.707-.707,1.46386,1.46338Zm-2.92676-2.92675-1.46386-1.46338.707-.707,1.46387,1.46337Zm-2.92675-2.92676-1.46387-1.46387.707-.707,1.46387,1.46387Zm-2.92676-2.92725-1.46387-1.46338.707-.707,1.46387,1.46338Zm-2.92676-2.92676-1.46387-1.46338.707-.707,1.46387,1.46338Zm-2.92773-2.92675-1.46289-1.46338.707-.707,1.46289,1.46337Zm-2.92676-2.92676-1.46289-1.46338.707-.707,1.46289,1.46338Zm-2.92676-2.92725-1.46289-1.46338.707-.707,1.46289,1.46338Zm-2.92676-2.92676-1.46338-1.46337.707-.707,1.46337,1.46338Zm-2.92675-2.92675-1.46338-1.46338.707-.707,1.46338,1.46338Zm-2.92676-2.92676-1.46338-1.46338.707-.707,1.46338,1.46338Zm-2.92676-2.92676-1.46338-1.46338.707-.707,1.46338,1.46338Z"/>
      <polygon points="439.781 439.488 438.72 438.427 439.781 437.366 440.488 438.073 440.134 438.427 440.488 438.781 439.781 439.488"/>
      <path d="M441.95117,436.60986l-.707-.707,1.46338-1.46338.707.707Zm2.92676-2.92675-.707-.707,1.46338-1.46337.707.707Zm2.92676-2.92725-.707-.707,1.46338-1.46338.707.707Zm2.92724-2.92676-.707-.707,1.46338-1.46338.707.707Zm2.92676-2.92676-.707-.707,1.46289-1.46338.707.707Zm2.92676-2.92675-.707-.707,1.46289-1.46337.707.707Zm2.92676-2.92725-.707-.707,1.46386-1.46338.707.707Zm2.92675-2.92676-.707-.707,1.46387-1.46338.707.707Zm2.92676-2.92676-.707-.707,1.46387-1.46338.707.707Zm2.92676-2.92675-.707-.707,1.46387-1.46338.707.707Zm2.92676-2.92725-.707-.707,1.46386-1.46338.707.707Zm2.92676-2.92676-.707-.707,1.46387-1.46338.707.707Z"/>
      <polygon points="477.781 401.488 477.427 401.134 477.074 401.488 476.367 400.781 477.427 399.72 478.488 400.781 477.781 401.488"/>
      <path d="M512.90283,436.60986l-1.46387-1.46338.707-.707,1.46386,1.46338Zm-2.92676-2.92675-1.46386-1.46338.707-.707,1.46387,1.46337Zm-2.92675-2.92676-1.46387-1.46338.707-.707,1.46387,1.46338Zm-2.92774-2.92676-1.46289-1.46338.707-.707,1.46289,1.46338Zm-2.92676-2.92676-1.46289-1.46338.707-.707,1.4629,1.46338Zm-2.92675-2.92724-1.46289-1.46338.707-.707,1.46289,1.46337Zm-2.92676-2.92676-1.46289-1.46338.707-.707,1.46289,1.46338Zm-2.92676-2.92676-1.46387-1.46338.707-.707,1.46387,1.46338Zm-2.92676-2.92676-1.46386-1.46338.707-.707,1.46386,1.46338Zm-2.92675-2.92676-1.46387-1.46386.707-.707,1.46387,1.46386Zm-2.92676-2.92724-1.46387-1.46338.707-.707,1.46387,1.46338Zm-2.92676-2.92676-1.46387-1.46338.707-.707,1.46387,1.46338Z"/>
    </g>
    <g>
      <polygon points="515.074 515.487 514.367 514.78 514.72 514.427 514.367 514.073 515.074 513.366 516.134 514.427 515.074 515.487"/>
      <path d="M479.95068,550.61035l-.707-.707,1.46387-1.46387.707.707Zm2.92676-2.92676-.707-.707,1.46387-1.46386.707.707Zm2.92676-2.92675-.707-.707,1.46387-1.46386.707.707Zm2.92773-2.92774-.707-.707,1.46289-1.46289.707.707Zm2.92676-2.92676-.707-.707,1.46289-1.46289.707.707Zm2.92676-2.92675-.707-.707,1.46289-1.46289.707.707Zm2.92676-2.92676-.707-.707,1.46289-1.46289.707.707Zm2.92675-2.92676-.707-.707,1.46387-1.46387.707.707Zm2.92676-2.92676-.707-.707,1.46387-1.46387.707.707Zm2.92676-2.92676-.707-.707,1.46387-1.46386.707.707Zm2.92676-2.92675-.707-.707,1.46386-1.46387.707.707ZM512.146,518.415l-.707-.707,1.46387-1.46387.707.707Z"/>
      <polygon points="477.427 553.134 476.367 552.073 477.074 551.366 477.427 551.72 477.781 551.366 478.488 552.073 477.427 553.134"/>
      <path d="M474.90283,550.61035l-1.46387-1.46387.707-.707,1.46386,1.46387Zm-2.92676-2.92676-1.46386-1.46386.707-.707,1.46387,1.46386Zm-2.92675-2.92675-1.46387-1.46387.707-.707,1.46387,1.46386Zm-2.92676-2.92676-1.46387-1.46387.707-.707,1.46387,1.46387Zm-2.92676-2.92676-1.46387-1.46387.707-.707,1.46387,1.46387Zm-2.92773-2.92773-1.46289-1.46289.707-.707,1.46289,1.46289Zm-2.92676-2.92676-1.46289-1.46289.707-.707,1.46289,1.46289Zm-2.92676-2.92676-1.46289-1.46289.707-.707,1.46289,1.46289Zm-2.92676-2.92676-1.46338-1.46289.707-.707,1.46337,1.46289Zm-2.92675-2.92676-1.46338-1.46386.707-.707,1.46338,1.46386Zm-2.92676-2.92675-1.46338-1.46387.707-.707,1.46338,1.46387Zm-2.92676-2.92676-1.46338-1.46387.707-.707,1.46338,1.46387Z"/>
      <polygon points="439.781 515.487 438.719 514.427 439.781 513.366 440.488 514.073 440.134 514.427 440.488 514.78 439.781 515.487"/>
      <path d="M441.95117,512.61035l-.707-.707,1.46338-1.46387.707.707Zm2.92676-2.92676-.707-.707,1.46338-1.46386.707.707Zm2.92676-2.92675-.707-.707,1.46338-1.46386.707.707Zm2.92676-2.92676-.707-.707,1.46338-1.46387.707.707Zm2.92724-2.92774-.707-.707,1.46289-1.46289.707.707Zm2.92676-2.92675-.707-.707,1.46289-1.46289.707.707Zm2.92676-2.92676-.707-.707,1.46289-1.46289.707.707Zm2.92675-2.92676-.707-.707,1.46289-1.46338.707.707Zm2.92676-2.92676-.707-.707,1.46387-1.46387.707.707Zm2.92676-2.92724-.707-.707,1.46387-1.46338.707.707Zm2.92676-2.92676-.707-.707,1.46386-1.46338.707.707Zm2.92676-2.92676-.707-.707,1.46387-1.46338.707.707Z"/>
      <polygon points="477.781 477.488 477.427 477.134 477.074 477.488 476.367 476.781 477.427 475.72 478.488 476.781 477.781 477.488"/>
      <path d="M512.90283,512.61035l-1.46387-1.46387.707-.707,1.46386,1.46387Zm-2.92676-2.92676-1.46386-1.46386.707-.707,1.46387,1.46386Zm-2.92675-2.92675-1.46387-1.46387.707-.707,1.46387,1.46386Zm-2.92774-2.92774-1.46289-1.46289.707-.707,1.46289,1.46289Zm-2.92676-2.92676-1.46289-1.46289.707-.707,1.4629,1.46289Zm-2.92675-2.92675-1.46289-1.46289.707-.707,1.46289,1.46289Zm-2.92676-2.92676-1.46289-1.46289.707-.707,1.46289,1.46289Zm-2.92676-2.92676-1.46387-1.46338.707-.707,1.46387,1.46338Zm-2.92676-2.92676-1.46386-1.46338.707-.707,1.46386,1.46338Zm-2.92675-2.92676-1.46387-1.46386.707-.707,1.46387,1.46386Zm-2.92676-2.92724-1.46387-1.46338.707-.707,1.46387,1.46338Zm-2.92676-2.92676-1.46387-1.46338.707-.707,1.46387,1.46338Z"/>
    </g>
    <g>
      <polygon points="509.574 401.488 508.867 400.781 509.22 400.427 508.867 400.073 509.574 399.366 510.634 400.427 509.574 401.488"/>
      <path d="M479.83936,431.22168l-.707-.707,1.35157-1.35156.707.707Zm2.70312-2.70313-.707-.707L483.187,426.46l.707.707Zm2.70313-2.70312-.707-.707,1.35157-1.35156.707.707Zm2.70312-2.70313-.707-.707,1.35156-1.35156.707.707Zm2.70313-2.70263-.707-.707,1.35157-1.35157.707.707Zm2.70312-2.70313-.707-.707,1.35156-1.35156.707.707Zm2.70313-2.70312-.707-.707,1.35157-1.35157.707.707Zm2.70312-2.70313-.707-.707,1.35156-1.35156.707.707Zm2.70313-2.70312-.707-.707,1.35157-1.35157.707.707Zm2.70312-2.70313-.707-.707,1.35156-1.35156.707.707Zm2.70313-2.70312-.707-.707,1.35157-1.35157.707.707Z"/>
      <polygon points="477.427 433.635 476.367 432.573 477.074 431.866 477.427 432.22 477.781 431.866 478.488 432.573 477.427 433.635"/>
      <path d="M475.01514,431.22168l-1.35157-1.35156.707-.707,1.35156,1.35156Zm-2.70313-2.70313-1.35156-1.35156.707-.707,1.35156,1.35156Zm-2.70312-2.70312-1.35157-1.35156.707-.707,1.35156,1.35156Zm-2.70313-2.70313-1.35156-1.35156.707-.707,1.35156,1.35156Zm-2.70312-2.70312-1.35157-1.35156.707-.707,1.35156,1.35156Zm-2.70313-2.70313-1.35156-1.35156.707-.707,1.35156,1.35156Zm-2.70312-2.70312-1.35157-1.35156.707-.707,1.35156,1.35156Zm-2.70313-2.70264-1.35156-1.35156.707-.707,1.35156,1.35156Zm-2.70312-2.70312-1.35157-1.35156.707-.707,1.35156,1.35157ZM450.687,406.894l-1.35156-1.35156.707-.707L451.394,406.187Zm-2.70312-2.70312-1.35157-1.35156.707-.707,1.35156,1.35157Z"/>
      <polygon points="445.281 401.488 444.22 400.427 445.281 399.366 445.988 400.073 445.634 400.427 445.988 400.781 445.281 401.488"/>
      <path d="M447.33936,398.72168l-.707-.707,1.35157-1.35156.707.707Zm2.70312-2.70313-.707-.707L450.687,393.96l.707.707Zm2.70313-2.70312-.707-.707,1.35157-1.35156.707.707Zm2.70312-2.70313-.707-.707,1.35156-1.35156.707.707Zm2.70313-2.70312-.707-.707,1.35157-1.35156.707.707Zm2.70312-2.70313-.707-.707,1.35156-1.35156.707.707Zm2.70313-2.70312-.707-.707,1.35157-1.35156.707.707Zm2.70312-2.70264-.707-.707,1.35156-1.35156.707.707Zm2.70313-2.70312-.707-.707,1.35157-1.35157.707.707Zm2.70312-2.70313-.707-.707,1.35156-1.35156.707.707Zm2.70313-2.70312-.707-.707,1.35157-1.35157.707.707Z"/>
      <polygon points="477.781 368.988 477.427 368.634 477.074 368.988 476.367 368.281 477.427 367.22 478.488 368.281 477.781 368.988"/>
      <path d="M507.51514,398.72168l-1.35157-1.35156.707-.707,1.35156,1.35156Zm-2.70313-2.70313-1.35156-1.35156.707-.707,1.35156,1.35156Zm-2.70312-2.70312-1.35157-1.35156.707-.707,1.35156,1.35156Zm-2.70313-2.70313-1.35156-1.35156.707-.707,1.35156,1.35156Zm-2.70312-2.70263-1.35157-1.35156.707-.707,1.35156,1.35157Zm-2.70313-2.70313L492.648,383.855l.707-.707,1.35156,1.35156Zm-2.70312-2.70312-1.35157-1.35156.707-.707,1.35156,1.35157Zm-2.70313-2.70313-1.35156-1.35156.707-.707,1.35156,1.35156Zm-2.70312-2.70312-1.35157-1.35156.707-.707,1.35156,1.35157ZM483.187,374.394l-1.35156-1.35156.707-.707L483.894,373.687Zm-2.70312-2.70312-1.35157-1.35156.707-.707,1.35156,1.35157Z"/>
    </g>
    <g>
      <polygon points="509.574 553.487 508.867 552.78 509.22 552.427 508.867 552.073 509.574 551.366 510.634 552.427 509.574 553.487"/>
      <path d="M479.83936,583.22168l-.707-.707,1.35157-1.35156.707.707Zm2.70312-2.70313-.707-.707L483.187,578.46l.707.707Zm2.70313-2.70312-.707-.707,1.35157-1.35156.707.707Zm2.70312-2.70313-.707-.707,1.35156-1.35156.707.707Zm2.70313-2.70312-.707-.707,1.35157-1.35156.707.707Zm2.70312-2.70313-.707-.707,1.35156-1.35156.707.707Zm2.70313-2.70312-.707-.707,1.35157-1.35156.707.707Zm2.70312-2.70313-.707-.707,1.35156-1.35156.707.707Zm2.70313-2.70312-.707-.707,1.35157-1.35156.707.707Zm2.70312-2.70313-.707-.707L504.812,556.835l.707.707Zm2.70313-2.70312-.707-.707,1.35157-1.35156.707.707Z"/>
      <polygon points="477.427 585.634 476.367 584.573 477.074 583.866 477.427 584.22 477.781 583.866 478.488 584.573 477.427 585.634"/>
      <path d="M475.01514,583.22168l-1.35157-1.35156.707-.707,1.35156,1.35156Zm-2.70313-2.70313-1.35156-1.35156.707-.707,1.35156,1.35156Zm-2.70312-2.70312-1.35157-1.35156.707-.707,1.35156,1.35156Zm-2.70313-2.70313-1.35156-1.35156.707-.707,1.35156,1.35156Zm-2.70312-2.70312-1.35157-1.35156.707-.707,1.35156,1.35156Zm-2.70313-2.70313-1.35156-1.35156.707-.707,1.35156,1.35156Zm-2.70312-2.70312-1.35157-1.35156.707-.707,1.35156,1.35156Zm-2.70313-2.70313-1.35156-1.35156.707-.707,1.35156,1.35156Zm-2.70312-2.70312-1.35157-1.35156.707-.707,1.35156,1.35156Zm-2.70313-2.70313-1.35156-1.35156.707-.707,1.35156,1.35156Zm-2.70312-2.70312-1.35157-1.35156.707-.707,1.35156,1.35156Z"/>
      <polygon points="445.281 553.487 444.219 552.427 445.281 551.366 445.988 552.073 445.634 552.427 445.988 552.78 445.281 553.487"/>
      <path d="M447.33936,550.72168l-.707-.707,1.35157-1.35156.707.707Zm2.70312-2.70313-.707-.707L450.687,545.96l.707.707Zm2.70313-2.70312-.707-.707,1.35157-1.35156.707.707Zm2.70312-2.70313-.707-.707,1.35156-1.35156.707.707Zm2.70313-2.70312-.707-.707,1.35157-1.35156.707.707Zm2.70312-2.70313-.707-.707,1.35156-1.35156.707.707Zm2.70313-2.70312-.707-.707,1.35157-1.35156.707.707Zm2.70312-2.70313-.707-.707,1.35156-1.35156.707.707Zm2.70313-2.70312-.707-.707,1.35157-1.35156.707.707Zm2.70312-2.70313-.707-.707L472.312,524.335l.707.707Zm2.70313-2.70312-.707-.707,1.35157-1.35156.707.707Z"/>
      <polygon points="477.781 520.987 477.427 520.634 477.074 520.987 476.367 520.28 477.427 519.22 478.488 520.28 477.781 520.987"/>
      <path d="M507.51514,550.72168l-1.35157-1.35156.707-.707,1.35156,1.35156Zm-2.70313-2.70313-1.35156-1.35156.707-.707,1.35156,1.35156Zm-2.70312-2.70312-1.35157-1.35156.707-.707,1.35156,1.35156Zm-2.70313-2.70313-1.35156-1.35156.707-.707,1.35156,1.35156Zm-2.70312-2.70312-1.35157-1.35156.707-.707,1.35156,1.35156Zm-2.70313-2.70313-1.35156-1.35156.707-.707,1.35156,1.35156Zm-2.70312-2.70312-1.35157-1.35156.707-.707,1.35156,1.35156Zm-2.70313-2.70313-1.35156-1.35156.707-.707,1.35156,1.35156Zm-2.70312-2.70312-1.35157-1.35156.707-.707,1.35156,1.35156Zm-2.70313-2.70313-1.35156-1.35156.707-.707,1.35156,1.35156Zm-2.70312-2.70312-1.35157-1.35156.707-.707,1.35156,1.35156Z"/>
    </g>
    <g>
      <polygon points="439.781 439.488 439.427 439.134 439.073 439.488 438.366 438.781 439.427 437.72 440.488 438.781 439.781 439.488"/>
      <path d="M474.90283,474.61035,473.439,473.147l.707-.707,1.46386,1.46338Zm-2.92676-2.92676-1.46386-1.46338.707-.707,1.46387,1.46338Zm-2.92675-2.92724-1.46387-1.46338.707-.707,1.46387,1.46338Zm-2.92676-2.92676-1.46387-1.46338.707-.707,1.46387,1.46338Zm-2.92676-2.92676-1.46387-1.46338.707-.707,1.46387,1.46338Zm-2.92676-2.92676-1.46386-1.46337.707-.707,1.46386,1.46338Zm-2.92773-2.92724-1.46289-1.46338.707-.707,1.46289,1.46338Zm-2.92676-2.92676-1.46289-1.46338.707-.707,1.46289,1.46338Zm-2.92627-2.92676-1.46338-1.46338.707-.707,1.46338,1.46338Zm-2.92724-2.92676-1.46338-1.46337.707-.707,1.46338,1.46338Zm-2.92676-2.92724-1.46338-1.46338.707-.707,1.46338,1.46338Zm-2.92676-2.92676-1.46338-1.46338.707-.707,1.46338,1.46338Z"/>
      <polygon points="477.074 477.488 476.367 476.781 476.72 476.427 476.367 476.073 477.074 475.366 478.134 476.427 477.074 477.488"/>
      <path d="M441.95117,512.61035l-.707-.707,1.46338-1.46387.707.707Zm2.92676-2.92676-.707-.707,1.46338-1.46386.707.707Zm2.92676-2.92675-.707-.707,1.46338-1.46386.707.707Zm2.92676-2.92774-.707-.707,1.46338-1.46289.707.707Zm2.92724-2.92676-.707-.707,1.46289-1.46289.707.707Zm2.92676-2.92675-.707-.707,1.46289-1.46289.707.707Zm2.92676-2.92676-.707-.707,1.46289-1.46289.707.707Zm2.92675-2.92676-.707-.707,1.46387-1.46338.707.707Zm2.92676-2.92676-.707-.707,1.46387-1.46338.707.707Zm2.92676-2.92676-.707-.707,1.46387-1.46386.707.707Zm2.92676-2.92724-.707-.707,1.46386-1.46338.707.707Zm2.92676-2.92676-.707-.707,1.46387-1.46338.707.707Z"/>
      <polygon points="439.427 515.134 438.366 514.073 439.073 513.366 439.427 513.72 439.781 513.366 440.488 514.073 439.427 515.134"/>
      <path d="M436.90283,512.61035l-1.46338-1.46387.707-.707,1.46338,1.46387Zm-2.92676-2.92676-1.46337-1.46386.707-.707,1.46338,1.46386Zm-2.92675-2.92675-1.46338-1.46387.707-.707,1.46338,1.46386Zm-2.92725-2.92676-1.46338-1.46387.707-.707,1.46338,1.46387Zm-2.92676-2.92774-1.46338-1.46289.707-.707,1.46338,1.46289Zm-2.92676-2.92675-1.46337-1.46289.707-.707,1.46338,1.46289Zm-2.92675-2.92676-1.46338-1.46289.707-.707,1.46338,1.46289Zm-2.92676-2.92676-1.46338-1.46338.707-.707,1.46338,1.46338Zm-2.92676-2.92676-1.46338-1.46338.707-.707,1.46338,1.46338Zm-2.92724-2.92676-1.46338-1.46337.707-.707,1.46338,1.46338Zm-2.92676-2.92724-1.46338-1.46338.707-.707,1.46338,1.46338Zm-2.92676-2.92676-1.46338-1.46338.707-.707,1.46338,1.46338Z"/>
      <polygon points="401.781 477.488 400.72 476.427 401.781 475.366 402.488 476.073 402.134 476.427 402.488 476.781 401.781 477.488"/>
      <path d="M403.95117,474.60986l-.707-.707,1.46338-1.46338.707.707Zm2.92676-2.92675-.707-.707,1.46338-1.46337.707.707Zm2.92676-2.92676-.707-.707,1.46386-1.46387.707.707Zm2.92724-2.92725-.707-.707,1.46338-1.46338.707.707Zm2.92676-2.92676-.707-.707,1.46338-1.46338.707.707Zm2.92676-2.92675-.707-.707,1.46338-1.46337.707.707Zm2.92676-2.92676-.707-.707,1.46337-1.46338.707.707Zm2.92724-2.92725-.707-.707,1.46338-1.46338.707.707Zm2.92676-2.92676-.707-.707,1.46338-1.46338.707.707Zm2.92676-2.92675-.707-.707,1.46338-1.46338.707.707Zm2.92676-2.92676-.707-.707,1.46337-1.46338.707.707Zm2.92675-2.92676-.707-.707,1.46338-1.46338.707.707Z"/>
    </g>
    <g>
      <polygon points="515.781 439.488 515.427 439.134 515.074 439.488 514.367 438.781 515.427 437.72 516.488 438.781 515.781 439.488"/>
      <path d="M550.90283,474.60986l-1.46387-1.46338.707-.707,1.46386,1.46338Zm-2.92676-2.92675-1.46386-1.46338.707-.707,1.46387,1.46337Zm-2.92675-2.92676-1.46387-1.46338.707-.707,1.46387,1.46338Zm-2.92774-2.92676-1.46289-1.46338.707-.707,1.46289,1.46338Zm-2.92676-2.92676-1.46289-1.46338.707-.707,1.4629,1.46338Zm-2.92675-2.92724-1.46289-1.46338.707-.707,1.46289,1.46337Zm-2.92676-2.92676-1.46289-1.46338.707-.707,1.46289,1.46338Zm-2.92676-2.92676-1.46387-1.46338.707-.707,1.46387,1.46338Zm-2.92676-2.92676-1.46386-1.46338.707-.707,1.46386,1.46338Zm-2.92675-2.92676-1.46387-1.46386.707-.707,1.46387,1.46386Zm-2.92676-2.92724-1.46387-1.46338.707-.707,1.46387,1.46338Zm-2.92676-2.92676-1.46387-1.46338.707-.707,1.46387,1.46338Z"/>
      <polygon points="553.074 477.488 552.367 476.781 552.72 476.427 552.367 476.073 553.074 475.366 554.134 476.427 553.074 477.488"/>
      <path d="M517.95068,512.61035l-.707-.707,1.46387-1.46387.707.707Zm2.92676-2.92676-.707-.707,1.46387-1.46386.707.707Zm2.92676-2.92675-.707-.707,1.46387-1.46386.707.707Zm2.92773-2.92774-.707-.707,1.46289-1.46289.707.707Zm2.92676-2.92676-.707-.707,1.46289-1.46289.707.707Zm2.92676-2.92675-.707-.707,1.46289-1.46289.707.707Zm2.92676-2.92676-.707-.707,1.46289-1.46289.707.707Zm2.92675-2.92676-.707-.707,1.46387-1.46338.707.707Zm2.92676-2.92676-.707-.707,1.46387-1.46338.707.707Zm2.92676-2.92676-.707-.707,1.46387-1.46386.707.707Zm2.92676-2.92724-.707-.707,1.46386-1.46338.707.707Zm2.92676-2.92676-.707-.707,1.46387-1.46338.707.707Z"/>
      <polygon points="515.427 515.134 514.367 514.073 515.074 513.366 515.427 513.72 515.781 513.366 516.488 514.073 515.427 515.134"/>
      <path d="M512.90283,512.61035l-1.46387-1.46387.707-.707,1.46386,1.46387Zm-2.92676-2.92676-1.46386-1.46386.707-.707,1.46387,1.46386Zm-2.92675-2.92675-1.46387-1.46387.707-.707,1.46387,1.46386Zm-2.92676-2.92676-1.46387-1.46387.707-.707,1.46387,1.46387Zm-2.92676-2.92774-1.46387-1.46289.707-.707,1.46387,1.46289Zm-2.92676-2.92675-1.46386-1.46289.707-.707,1.46386,1.46289Zm-2.92773-2.92676-1.46289-1.46289.707-.707,1.46289,1.46289Zm-2.92676-2.92676-1.46289-1.46338.707-.707,1.46289,1.46338Zm-2.92676-2.92676-1.46289-1.46338.707-.707,1.46289,1.46338Zm-2.92675-2.92676-1.4629-1.46337.707-.707,1.46289,1.46338Zm-2.92676-2.92724-1.46289-1.46338.707-.707,1.46289,1.46338Zm-2.92676-2.92676-1.46289-1.46338.707-.707,1.46289,1.46338Z"/>
      <polygon points="477.781 477.488 476.72 476.427 477.781 475.366 478.488 476.073 478.134 476.427 478.488 476.781 477.781 477.488"/>
      <path d="M479.95068,474.60986l-.707-.707,1.46387-1.46338.707.707Zm2.92676-2.92675-.707-.707,1.46387-1.46337.707.707Zm2.92676-2.92676-.707-.707,1.46387-1.46387.707.707Zm2.92676-2.92725-.707-.707,1.46386-1.46338.707.707Zm2.92675-2.92676-.707-.707,1.46387-1.46338.707.707Zm2.92774-2.92675-.707-.707,1.46289-1.46337.707.707Zm2.92676-2.92676-.707-.707,1.46289-1.46338.707.707Zm2.92675-2.92725-.707-.707,1.46289-1.46338.707.707Zm2.92676-2.92676-.707-.707,1.46289-1.46338.707.707Zm2.92676-2.92675-.707-.707,1.46387-1.46338.707.707Zm2.92676-2.92676-.707-.707,1.46386-1.46338.707.707Zm2.92676-2.92676-.707-.707,1.46387-1.46338.707.707Z"/>
    </g>
    <g>
      <polygon points="401.781 444.988 401.427 444.634 401.073 444.988 400.366 444.281 401.427 443.22 402.488 444.281 401.781 444.988"/>
      <path d="M431.51514,474.72217l-1.35157-1.35156.707-.707,1.35156,1.35157ZM428.812,472.019l-1.35156-1.35156.707-.707L429.519,471.312Zm-2.70312-2.70312-1.35157-1.35156.707-.707,1.35156,1.35157Zm-2.70313-2.70313-1.35156-1.35156.707-.707,1.35156,1.35156Zm-2.70312-2.70312-1.35157-1.35156.707-.707,1.35156,1.35157Zm-2.70313-2.70313L416.648,459.855l.707-.707,1.35156,1.35156Zm-2.70312-2.70312-1.35157-1.35156.707-.707,1.35156,1.35157Zm-2.70313-2.70313-1.35156-1.35156.707-.707,1.35156,1.35156Zm-2.70312-2.70312-1.35157-1.35156.707-.707,1.35156,1.35157ZM407.187,450.394l-1.35156-1.35156.707-.707L407.894,449.687Zm-2.70312-2.70312-1.35157-1.35156.707-.707,1.35156,1.35157Z"/>
      <polygon points="433.573 477.488 432.866 476.781 433.22 476.427 432.866 476.073 433.573 475.366 434.634 476.427 433.573 477.488"/>
      <path d="M403.83887,507.22168l-.707-.707,1.35156-1.35156.707.707Zm2.70312-2.70313-.707-.707,1.35156-1.35156.707.707Zm2.70313-2.70312-.707-.707,1.35156-1.35156.707.707Zm2.70312-2.70313-.707-.707,1.35156-1.35156.707.707Zm2.70313-2.70312-.707-.707,1.35156-1.35156.707.707Zm2.70312-2.70313-.707-.707,1.35156-1.35156.707.707Zm2.70313-2.70263-.707-.707,1.35156-1.35157.707.707Zm2.70312-2.70313-.707-.707,1.35156-1.35156.707.707Zm2.70313-2.70312-.707-.707,1.35156-1.35157.707.707ZM428.167,482.894l-.707-.707,1.35156-1.35156.707.707Zm2.70313-2.70312-.707-.707,1.35156-1.35157.707.707Z"/>
      <polygon points="401.427 509.634 400.366 508.573 401.073 507.866 401.427 508.22 401.781 507.866 402.488 508.573 401.427 509.634"/>
      <path d="M399.01465,507.22168l-1.35156-1.35156.707-.707,1.35156,1.35156Zm-2.70313-2.70313L394.96,503.167l.707-.707,1.35156,1.35156Zm-2.70312-2.70312-1.35156-1.35156.707-.707,1.35156,1.35156Zm-2.70313-2.70313-1.35156-1.35156.707-.707,1.35156,1.35156Zm-2.70312-2.70312-1.35156-1.35156.707-.707,1.35156,1.35156Zm-2.70313-2.70313-1.35156-1.35156.707-.707,1.35156,1.35156Zm-2.70312-2.70312-1.35156-1.35156.707-.707,1.35156,1.35156Zm-2.70313-2.70313-1.35156-1.35156.707-.707,1.35156,1.35156Zm-2.70312-2.70312-1.35156-1.35156.707-.707,1.35156,1.35156Zm-2.70313-2.70313L373.335,481.542l.707-.707,1.35156,1.35156Zm-2.70312-2.70312-1.35156-1.35156.707-.707,1.35156,1.35156Z"/>
      <polygon points="369.281 477.488 368.22 476.427 369.281 475.366 369.988 476.073 369.634 476.427 369.988 476.781 369.281 477.488"/>
      <path d="M371.33936,474.72168l-.707-.707,1.35157-1.35156.707.707Zm2.70312-2.70313-.707-.707L374.687,469.96l.707.707Zm2.70313-2.70312-.707-.707,1.35157-1.35156.707.707Zm2.70312-2.70313-.707-.707,1.35156-1.35156.707.707Zm2.70313-2.70312-.707-.707,1.35157-1.35156.707.707Zm2.70312-2.70313-.707-.707,1.35156-1.35156.707.707Zm2.70313-2.70312-.707-.707,1.35157-1.35156.707.707Zm2.70312-2.70313-.707-.707,1.35156-1.35156.707.707Zm2.70313-2.70312-.707-.707,1.35157-1.35156.707.707Zm2.70312-2.70313-.707-.707L396.312,448.335l.707.707Zm2.70313-2.70312-.707-.707,1.35157-1.35156.707.707Z"/>
    </g>
    <g>
      <polygon points="553.781 444.988 553.427 444.634 553.074 444.988 552.367 444.281 553.427 443.22 554.488 444.281 553.781 444.988"/>
      <path d="M583.51514,474.72168l-1.35157-1.35156.707-.707,1.35156,1.35156Zm-2.70313-2.70313-1.35156-1.35156.707-.707,1.35156,1.35156Zm-2.70312-2.70312-1.35157-1.35156.707-.707,1.35156,1.35156Zm-2.70313-2.70313-1.35156-1.35156.707-.707,1.35156,1.35156Zm-2.70312-2.70263-1.35157-1.35156.707-.707,1.35156,1.35157Zm-2.70313-2.70313L568.648,459.855l.707-.707,1.35156,1.35156Zm-2.70312-2.70312-1.35157-1.35156.707-.707,1.35156,1.35157Zm-2.70313-2.70313-1.35156-1.35156.707-.707,1.35156,1.35156Zm-2.70312-2.70312-1.35157-1.35156.707-.707,1.35156,1.35157ZM559.187,450.394l-1.35156-1.35156.707-.707L559.894,449.687Zm-2.70312-2.70312-1.35157-1.35156.707-.707,1.35156,1.35157Z"/>
      <polygon points="585.574 477.488 584.867 476.781 585.22 476.427 584.867 476.073 585.574 475.366 586.634 476.427 585.574 477.488"/>
      <path d="M555.83936,507.22168l-.707-.707,1.35157-1.35156.707.707Zm2.70312-2.70313-.707-.707L559.187,502.46l.707.707Zm2.70313-2.70312-.707-.707,1.35157-1.35156.707.707Zm2.70312-2.70313-.707-.707,1.35156-1.35156.707.707Zm2.70313-2.70312-.707-.707,1.35157-1.35156.707.707Zm2.70312-2.70313-.707-.707,1.35156-1.35156.707.707Zm2.70313-2.70263-.707-.707,1.35157-1.35157.707.707Zm2.70312-2.70313-.707-.707,1.35156-1.35156.707.707Zm2.70313-2.70312-.707-.707,1.35157-1.35157.707.707Zm2.70312-2.70313-.707-.707,1.35156-1.35156.707.707Zm2.70313-2.70312-.707-.707,1.35157-1.35157.707.707Z"/>
      <polygon points="553.427 509.634 552.367 508.573 553.074 507.866 553.427 508.22 553.781 507.866 554.488 508.573 553.427 509.634"/>
      <path d="M551.01514,507.22168l-1.35157-1.35156.707-.707,1.35156,1.35156Zm-2.70313-2.70313-1.35156-1.35156.707-.707,1.35156,1.35156Zm-2.70312-2.70312-1.35157-1.35156.707-.707,1.35156,1.35156Zm-2.70313-2.70313-1.35156-1.35156.707-.707,1.35156,1.35156Zm-2.70312-2.70312-1.35157-1.35156.707-.707,1.35156,1.35156Zm-2.70313-2.70313-1.35156-1.35156.707-.707,1.35156,1.35156Zm-2.70312-2.70312-1.35157-1.35156.707-.707,1.35156,1.35156Zm-2.70313-2.70264-1.35156-1.35156.707-.707,1.35156,1.35156Zm-2.70312-2.70312-1.35157-1.35156.707-.707,1.35156,1.35157ZM526.687,482.894l-1.35156-1.35156.707-.707L527.394,482.187Zm-2.70312-2.70312-1.35157-1.35156.707-.707,1.35156,1.35157Z"/>
      <polygon points="521.281 477.488 520.22 476.427 521.281 475.366 521.988 476.073 521.634 476.427 521.988 476.781 521.281 477.488"/>
      <path d="M523.33936,474.72168l-.707-.707,1.35157-1.35156.707.707Zm2.70312-2.70313-.707-.707L526.687,469.96l.707.707Zm2.70313-2.70312-.707-.707,1.35157-1.35156.707.707Zm2.70312-2.70313-.707-.707,1.35156-1.35156.707.707Zm2.70313-2.70312-.707-.707,1.35157-1.35156.707.707Zm2.70312-2.70313-.707-.707,1.35156-1.35156.707.707Zm2.70313-2.70312-.707-.707,1.35157-1.35156.707.707Zm2.70312-2.70264-.707-.707,1.35156-1.35156.707.707Zm2.70313-2.70312-.707-.707,1.35157-1.35157.707.707Zm2.70312-2.70313-.707-.707,1.35156-1.35156.707.707Zm2.70313-2.70312-.707-.707,1.35157-1.35157.707.707Z"/>
    </g>
    <g>
      <polygon points="477.927 476.927 476.427 476.927 476.427 475.927 476.927 475.927 476.927 475.427 477.927 475.427 477.927 476.927"/>
      <path d="M474.41064,476.92725H472.394v-1h2.0166Zm-4.0332,0h-2.0166v-1h2.0166Zm-4.0332,0h-2.0166v-1h2.0166Zm-4.03223,0h-2.0166v-1h2.0166Zm-4.0332,0h-2.0166v-1h2.0166Zm-4.0332,0H452.229v-1h2.01661Zm-4.03321,0h-2.0166v-1h2.0166Zm-4.03271,0h-2.0166v-1h2.0166Zm-4.03321,0h-2.0166v-1h2.0166Zm-4.0332,0h-2.01611v-1h2.01611Zm-4.03271,0H432.064v-1h2.01661Zm-4.03321,0h-2.0166v-1h2.0166Zm-4.03271,0h-2.0166v-1h2.0166Zm-4.0332,0h-2.01661v-1h2.01661Zm-4.03321,0h-2.0166v-1h2.0166Zm-4.03271,0h-2.0166v-1h2.0166Zm-4.03321,0h-2.0166v-1h2.0166Zm-4.0332,0H403.833v-1h2.01611Zm-4.03271,0H399.7998v-1h2.01661Zm-4.03321,0h-2.0166v-1h2.0166Zm-4.03271,0h-2.0166v-1h2.0166Zm-4.0332,0h-2.01661v-1h2.01661Zm-4.03321,0H383.668v-1h2.01611Zm-4.03271,0h-2.0166v-1h2.0166Zm-4.03321,0h-2.0166v-1h2.0166Zm-4.0332,0h-2.01611v-1H373.585Z"/>
      <polygon points="369.552 476.927 368.052 476.927 368.052 475.427 369.052 475.427 369.052 475.927 369.552 475.927 369.552 476.927"/>
      <path d="M369.05176,473.41064h-1V471.394h1Zm0-4.0332h-1v-2.01611h1Zm0-4.03271h-1v-2.0166h1Zm0-4.03321h-1v-2.0166h1Zm0-4.03271h-1v-2.0166h1Zm0-4.0332h-1V451.229h1Zm0-4.03321h-1v-2.0166h1Zm0-4.03271h-1v-2.0166h1Zm0-4.03321h-1v-2.0166h1Zm0-4.0332h-1v-2.01611h1Zm0-4.03271h-1V431.064h1Zm0-4.03321h-1v-2.0166h1Zm0-4.03271h-1v-2.0166h1Zm0-4.0332h-1v-2.01661h1Zm0-4.03321h-1v-2.0166h1Zm0-4.03271h-1v-2.0166h1Zm0-4.03321h-1v-2.0166h1Zm0-4.0332h-1V402.833h1Zm0-4.03271h-1V398.7998h1Zm0-4.03321h-1v-2.0166h1Zm0-4.0332h-1v-2.01611h1Zm0-4.03271h-1v-2.01661h1Zm0-4.03321h-1v-2.0166h1Zm0-4.03271h-1v-2.0166h1Zm0-4.03321h-1v-2.0166h1Zm0-4.0332h-1v-2.01611h1Z"/>
      <polygon points="369.052 368.552 368.052 368.552 368.052 367.052 369.552 367.052 369.552 368.052 369.052 368.052 369.052 368.552"/>
      <path d="M474.41064,368.05225H472.394v-1h2.0166Zm-4.0332,0h-2.0166v-1h2.0166Zm-4.0332,0h-2.0166v-1h2.0166Zm-4.0332,0h-2.01661v-1H462.311Zm-4.03321,0h-2.01562v-1h2.01562Zm-4.03222,0H452.229v-1h2.01661Zm-4.03321,0h-2.0166v-1h2.0166Zm-4.0332,0h-2.0166v-1h2.0166Zm-4.0332,0h-2.01612v-1H442.146Zm-4.03272,0h-2.0166v-1h2.0166Zm-4.0332,0h-2.0166v-1h2.0166Zm-4.03272,0h-2.0166v-1h2.0166Zm-4.0332,0h-2.0166v-1h2.0166Zm-4.0332,0h-2.0166v-1h2.0166Zm-4.03272,0h-2.0166v-1h2.0166Zm-4.0332,0h-2.0166v-1h2.0166Zm-4.0332,0h-2.01612v-1h2.01612Zm-4.03272,0h-2.0166v-1h2.0166Zm-4.0332,0h-2.0166v-1h2.0166Zm-4.03272,0h-2.0166v-1h2.0166Zm-4.0332,0h-2.0166v-1H393.75Zm-4.0332,0h-2.0166v-1h2.0166Zm-4.03272,0h-2.0166v-1h2.0166Zm-4.0332,0h-2.0166v-1h2.0166Zm-4.0332,0h-2.01612v-1h2.01612Zm-4.03272,0h-2.0166v-1h2.0166Z"/>
      <polygon points="477.927 368.552 476.927 368.552 476.927 368.052 476.427 368.052 476.427 367.052 477.927 367.052 477.927 368.552"/>
      <path d="M477.92725,473.41016h-1V471.394h1Zm0-4.03272h-1v-2.0166h1Zm0-4.0332h-1v-2.0166h1Zm0-4.0332h-1v-2.01612h1Zm0-4.03272h-1v-2.0166h1Zm0-4.0332h-1v-2.0166h1Zm0-4.03272h-1v-2.0166h1Zm0-4.0332h-1v-2.0166h1Zm0-4.0332h-1v-2.01612h1Zm0-4.03272h-1v-2.0166h1Zm0-4.0332h-1v-2.0166h1Zm0-4.03272h-1v-2.0166h1Zm0-4.0332h-1v-2.0166h1Zm0-4.0332h-1v-2.0166h1Zm0-4.03272h-1v-2.0166h1Zm0-4.0332h-1v-2.0166h1Zm0-4.0332h-1v-2.01612h1Zm0-4.03272h-1v-2.0166h1Zm0-4.0332h-1v-2.0166h1Zm0-4.03272h-1v-2.0166h1Zm0-4.0332h-1v-2.0166h1Zm0-4.0332h-1v-2.0166h1Zm0-4.03272h-1v-2.0166h1Zm0-4.0332h-1v-2.0166h1Zm0-4.0332h-1v-2.01612h1Zm0-4.03272h-1v-2.0166h1Z"/>
    </g>
    <g>
      <polygon points="477.927 585.927 476.427 585.927 476.427 584.927 476.927 584.927 476.927 584.427 477.927 584.427 477.927 585.927"/>
      <path d="M474.41064,585.92676H472.394v-1h2.0166Zm-4.0332,0h-2.0166v-1h2.0166Zm-4.0332,0h-2.0166v-1h2.0166Zm-4.03223,0h-2.0166v-1h2.0166Zm-4.0332,0h-2.0166v-1h2.0166Zm-4.0332,0H452.229v-1h2.01661Zm-4.03321,0h-2.0166v-1h2.0166Zm-4.03271,0h-2.0166v-1h2.0166Zm-4.03321,0h-2.0166v-1h2.0166Zm-4.0332,0h-2.01611v-1h2.01611Zm-4.03271,0H432.064v-1h2.01661Zm-4.03321,0h-2.0166v-1h2.0166Zm-4.03271,0h-2.0166v-1h2.0166Zm-4.0332,0h-2.01661v-1h2.01661Zm-4.03321,0h-2.0166v-1h2.0166Zm-4.03271,0h-2.0166v-1h2.0166Zm-4.03321,0h-2.0166v-1h2.0166Zm-4.0332,0H403.833v-1h2.01611Zm-4.03271,0H399.7998v-1h2.01661Zm-4.03321,0h-2.0166v-1h2.0166Zm-4.03271,0h-2.0166v-1h2.0166Zm-4.0332,0h-2.01661v-1h2.01661Zm-4.03321,0H383.668v-1h2.01611Zm-4.03271,0h-2.0166v-1h2.0166Zm-4.03321,0h-2.0166v-1h2.0166Zm-4.0332,0h-2.01611v-1H373.585Z"/>
      <polygon points="369.552 585.927 368.052 585.927 368.052 584.427 369.052 584.427 369.052 584.927 369.552 584.927 369.552 585.927"/>
      <path d="M369.05176,582.41016h-1v-2.01661h1Zm0-4.03321h-1v-2.0166h1Zm0-4.0332h-1v-2.0166h1Zm0-4.03223h-1v-2.0166h1Zm0-4.0332h-1v-2.0166h1Zm0-4.0332h-1v-2.0166h1Zm0-4.03321h-1v-2.0166h1Zm0-4.0332h-1v-2.0166h1Zm0-4.03223h-1v-2.0166h1Zm0-4.0332h-1v-2.0166h1Zm0-4.0332h-1v-2.0166h1Zm0-4.0332h-1v-2.01661h1Zm0-4.03321h-1v-2.0166h1Zm0-4.0332h-1v-2.01563h1Zm0-4.03223h-1v-2.0166h1Zm0-4.0332h-1v-2.0166h1Zm0-4.0332h-1v-2.01661h1Zm0-4.03321h-1V511.832h1Zm0-4.0332h-1V507.7998h1Zm0-4.03223h-1v-2.0166h1Zm0-4.0332h-1v-2.0166h1Zm0-4.0332h-1v-2.0166h1Zm0-4.03321h-1V491.667h1Zm0-4.03271h-1v-2.0166h1Zm0-4.0332h-1v-2.01661h1Zm0-4.03321h-1v-2.01611h1Z"/>
      <polygon points="369.052 477.552 368.052 477.552 368.052 476.052 369.552 476.052 369.552 477.052 369.052 477.052 369.052 477.552"/>
      <path d="M474.41064,477.05225H472.394v-1h2.0166Zm-4.0332,0h-2.0166v-1h2.0166Zm-4.0332,0h-2.0166v-1h2.0166Zm-4.0332,0h-2.01661v-1H462.311Zm-4.03321,0h-2.01562v-1h2.01562Zm-4.03222,0H452.229v-1h2.01661Zm-4.03321,0h-2.0166v-1h2.0166Zm-4.0332,0h-2.0166v-1h2.0166Zm-4.0332,0h-2.01612v-1H442.146Zm-4.03272,0h-2.0166v-1h2.0166Zm-4.0332,0h-2.0166v-1h2.0166Zm-4.03272,0h-2.0166v-1h2.0166Zm-4.0332,0h-2.0166v-1h2.0166Zm-4.0332,0h-2.0166v-1h2.0166Zm-4.03272,0h-2.0166v-1h2.0166Zm-4.0332,0h-2.0166v-1h2.0166Zm-4.0332,0h-2.01612v-1h2.01612Zm-4.03272,0h-2.0166v-1h2.0166Zm-4.0332,0h-2.0166v-1h2.0166Zm-4.03272,0h-2.0166v-1h2.0166Zm-4.0332,0h-2.0166v-1H393.75Zm-4.0332,0h-2.0166v-1h2.0166Zm-4.03272,0h-2.0166v-1h2.0166Zm-4.0332,0h-2.0166v-1h2.0166Zm-4.0332,0h-2.01612v-1h2.01612Zm-4.03272,0h-2.0166v-1h2.0166Z"/>
      <polygon points="477.927 477.552 476.927 477.552 476.927 477.052 476.427 477.052 476.427 476.052 477.927 476.052 477.927 477.552"/>
      <path d="M477.92725,582.41016h-1v-2.01661h1Zm0-4.03321h-1v-2.0166h1Zm0-4.03222h-1v-2.0166h1Zm0-4.03321h-1v-2.0166h1Zm0-4.0332h-1v-2.0166h1Zm0-4.0332h-1v-2.0166h1Zm0-4.03321h-1v-2.0166h1Zm0-4.0332h-1v-2.01562h1Zm0-4.03223h-1v-2.0166h1Zm0-4.0332h-1v-2.0166h1Zm0-4.0332h-1v-2.0166h1Zm0-4.0332h-1v-2.01661h1Zm0-4.03321h-1v-2.01562h1Zm0-4.03222h-1v-2.01661h1Zm0-4.03321h-1v-2.0166h1Zm0-4.0332h-1v-2.0166h1Zm0-4.0332h-1v-2.01661h1Zm0-4.03321h-1V511.832h1Zm0-4.03222h-1V507.7998h1Zm0-4.03321h-1v-2.0166h1Zm0-4.0332h-1v-2.0166h1Zm0-4.0332h-1v-2.0166h1Zm0-4.03321h-1V491.667h1Zm0-4.03271h-1v-2.0166h1Zm0-4.0332h-1v-2.01612h1Zm0-4.03272h-1v-2.0166h1Z"/>
    </g>
    <g>
      <polygon points="586.927 585.927 585.427 585.927 585.427 584.927 585.927 584.927 585.927 584.427 586.927 584.427 586.927 585.927"/>
      <path d="M583.41064,585.92676H581.394v-1h2.0166Zm-4.0332,0h-2.0166v-1h2.0166Zm-4.0332,0h-2.0166v-1h2.0166Zm-4.03223,0h-2.0166v-1h2.0166Zm-4.0332,0h-2.0166v-1h2.0166Zm-4.0332,0H561.229v-1h2.01661Zm-4.03321,0h-2.0166v-1h2.0166Zm-4.0332,0h-2.0166v-1h2.0166Zm-4.03223,0h-2.0166v-1h2.0166Zm-4.0332,0h-2.0166v-1h2.0166Zm-4.0332,0H541.064v-1h2.01661Zm-4.03321,0h-2.0166v-1h2.0166Zm-4.0332,0h-2.0166v-1h2.0166Zm-4.0332,0h-2.01563v-1H530.981Zm-4.03223,0h-2.0166v-1h2.0166Zm-4.0332,0h-2.0166v-1h2.0166Zm-4.03321,0h-2.0166v-1h2.0166Zm-4.0332,0h-2.0166v-1h2.0166Zm-4.0332,0h-2.01563v-1h2.01563Zm-4.03223,0h-2.0166v-1h2.0166Zm-4.0332,0h-2.0166v-1h2.0166Zm-4.0332,0h-2.01661v-1h2.01661Zm-4.03321,0h-2.0166v-1h2.0166Zm-4.0332,0h-2.0166v-1h2.0166Zm-4.03223,0h-2.0166v-1h2.0166Zm-4.0332,0h-2.0166v-1h2.0166Z"/>
      <polygon points="478.552 585.927 477.052 585.927 477.052 584.427 478.052 584.427 478.052 584.927 478.552 584.927 478.552 585.927"/>
      <path d="M478.05225,582.41016h-1v-2.01661h1Zm0-4.03321h-1v-2.0166h1Zm0-4.0332h-1v-2.0166h1Zm0-4.03223h-1v-2.0166h1Zm0-4.0332h-1v-2.0166h1Zm0-4.0332h-1v-2.0166h1Zm0-4.03321h-1v-2.0166h1Zm0-4.0332h-1v-2.0166h1Zm0-4.03223h-1v-2.0166h1Zm0-4.0332h-1v-2.0166h1Zm0-4.0332h-1v-2.0166h1Zm0-4.0332h-1v-2.01661h1Zm0-4.03321h-1v-2.0166h1Zm0-4.0332h-1v-2.01563h1Zm0-4.03223h-1v-2.0166h1Zm0-4.0332h-1v-2.0166h1Zm0-4.0332h-1v-2.01661h1Zm0-4.03321h-1V511.832h1Zm0-4.0332h-1V507.7998h1Zm0-4.03223h-1v-2.0166h1Zm0-4.0332h-1v-2.0166h1Zm0-4.0332h-1v-2.0166h1Zm0-4.03321h-1V491.667h1Zm0-4.03271h-1v-2.0166h1Zm0-4.0332h-1v-2.01661h1Zm0-4.03321h-1v-2.01611h1Z"/>
      <polygon points="478.052 477.552 477.052 477.552 477.052 476.052 478.552 476.052 478.552 477.052 478.052 477.052 478.052 477.552"/>
      <path d="M583.41064,477.05225H581.394v-1h2.0166Zm-4.0332,0h-2.0166v-1h2.0166Zm-4.03223,0h-2.0166v-1h2.0166Zm-4.0332,0h-2.0166v-1h2.0166Zm-4.0332,0h-2.0166v-1h2.0166Zm-4.0332,0H561.229v-1h2.01661Zm-4.03321,0h-2.0166v-1h2.0166Zm-4.0332,0h-2.01563v-1h2.01563Zm-4.03223,0h-2.0166v-1h2.0166Zm-4.0332,0h-2.0166v-1h2.0166Zm-4.0332,0H541.064v-1h2.01661Zm-4.03321,0h-2.0166v-1h2.0166Zm-4.0332,0h-2.01562v-1h2.01562Zm-4.03223,0h-2.0166v-1h2.0166Zm-4.0332,0h-2.0166v-1h2.0166Zm-4.0332,0h-2.0166v-1h2.0166Zm-4.03321,0h-2.0166v-1h2.0166Zm-4.0332,0h-2.0166v-1h2.0166Zm-4.03223,0h-2.0166v-1h2.0166Zm-4.0332,0h-2.0166v-1h2.0166Zm-4.0332,0h-2.0166v-1h2.0166Zm-4.0332,0h-2.01661v-1h2.01661Zm-4.03321,0h-2.0166v-1h2.0166Zm-4.03222,0h-2.01661v-1h2.01661Zm-4.03321,0h-2.0166v-1h2.0166Zm-4.0332,0h-2.0166v-1h2.0166Z"/>
      <polygon points="586.927 477.552 585.927 477.552 585.927 477.052 585.427 477.052 585.427 476.052 586.927 476.052 586.927 477.552"/>
      <path d="M586.92725,582.41016h-1v-2.01661h1Zm0-4.03321h-1v-2.0166h1Zm0-4.03222h-1v-2.0166h1Zm0-4.03321h-1v-2.0166h1Zm0-4.0332h-1v-2.0166h1Zm0-4.0332h-1v-2.0166h1Zm0-4.03321h-1v-2.0166h1Zm0-4.0332h-1v-2.01562h1Zm0-4.03223h-1v-2.0166h1Zm0-4.0332h-1v-2.0166h1Zm0-4.0332h-1v-2.0166h1Zm0-4.0332h-1v-2.01661h1Zm0-4.03321h-1v-2.01562h1Zm0-4.03222h-1v-2.01661h1Zm0-4.03321h-1v-2.0166h1Zm0-4.0332h-1v-2.0166h1Zm0-4.0332h-1v-2.01661h1Zm0-4.03321h-1V511.832h1Zm0-4.03222h-1V507.7998h1Zm0-4.03321h-1v-2.0166h1Zm0-4.0332h-1v-2.0166h1Zm0-4.0332h-1v-2.0166h1Zm0-4.03321h-1V491.667h1Zm0-4.03271h-1v-2.0166h1Zm0-4.0332h-1v-2.01612h1Zm0-4.03272h-1v-2.0166h1Z"/>
    </g>
    <g>
      <polygon points="586.927 476.927 585.427 476.927 585.427 475.927 585.927 475.927 585.927 475.427 586.927 475.427 586.927 476.927"/>
      <path d="M583.41064,476.92725H581.394v-1h2.0166Zm-4.0332,0h-2.0166v-1h2.0166Zm-4.0332,0h-2.0166v-1h2.0166Zm-4.03223,0h-2.0166v-1h2.0166Zm-4.0332,0h-2.0166v-1h2.0166Zm-4.0332,0H561.229v-1h2.01661Zm-4.03321,0h-2.0166v-1h2.0166Zm-4.0332,0h-2.0166v-1h2.0166Zm-4.03223,0h-2.0166v-1h2.0166Zm-4.0332,0h-2.0166v-1h2.0166Zm-4.0332,0H541.064v-1h2.01661Zm-4.03321,0h-2.0166v-1h2.0166Zm-4.0332,0h-2.0166v-1h2.0166Zm-4.0332,0h-2.01563v-1H530.981Zm-4.03223,0h-2.0166v-1h2.0166Zm-4.0332,0h-2.0166v-1h2.0166Zm-4.03321,0h-2.0166v-1h2.0166Zm-4.0332,0h-2.0166v-1h2.0166Zm-4.0332,0h-2.01563v-1h2.01563Zm-4.03223,0h-2.0166v-1h2.0166Zm-4.0332,0h-2.0166v-1h2.0166Zm-4.0332,0h-2.01661v-1h2.01661Zm-4.03321,0h-2.0166v-1h2.0166Zm-4.0332,0h-2.0166v-1h2.0166Zm-4.03223,0h-2.0166v-1h2.0166Zm-4.0332,0h-2.0166v-1h2.0166Z"/>
      <polygon points="478.552 476.927 477.052 476.927 477.052 475.427 478.052 475.427 478.052 475.927 478.552 475.927 478.552 476.927"/>
      <path d="M478.05225,473.41064h-1V471.394h1Zm0-4.0332h-1v-2.01611h1Zm0-4.03271h-1v-2.0166h1Zm0-4.03321h-1v-2.0166h1Zm0-4.03271h-1v-2.0166h1Zm0-4.0332h-1V451.229h1Zm0-4.03321h-1v-2.0166h1Zm0-4.03271h-1v-2.0166h1Zm0-4.03321h-1v-2.0166h1Zm0-4.0332h-1v-2.01611h1Zm0-4.03271h-1V431.064h1Zm0-4.03321h-1v-2.0166h1Zm0-4.03271h-1v-2.0166h1Zm0-4.0332h-1v-2.01661h1Zm0-4.03321h-1v-2.0166h1Zm0-4.03271h-1v-2.0166h1Zm0-4.03321h-1v-2.0166h1Zm0-4.0332h-1V402.833h1Zm0-4.03271h-1V398.7998h1Zm0-4.03321h-1v-2.0166h1Zm0-4.0332h-1v-2.01611h1Zm0-4.03271h-1v-2.01661h1Zm0-4.03321h-1v-2.0166h1Zm0-4.03271h-1v-2.0166h1Zm0-4.03321h-1v-2.0166h1Zm0-4.0332h-1v-2.01611h1Z"/>
      <polygon points="478.052 368.552 477.052 368.552 477.052 367.052 478.552 367.052 478.552 368.052 478.052 368.052 478.052 368.552"/>
      <path d="M583.41064,368.05225H581.394v-1h2.0166Zm-4.0332,0h-2.0166v-1h2.0166Zm-4.03223,0h-2.0166v-1h2.0166Zm-4.0332,0h-2.0166v-1h2.0166Zm-4.0332,0h-2.0166v-1h2.0166Zm-4.0332,0H561.229v-1h2.01661Zm-4.03321,0h-2.0166v-1h2.0166Zm-4.0332,0h-2.01563v-1h2.01563Zm-4.03223,0h-2.0166v-1h2.0166Zm-4.0332,0h-2.0166v-1h2.0166Zm-4.0332,0H541.064v-1h2.01661Zm-4.03321,0h-2.0166v-1h2.0166Zm-4.0332,0h-2.01562v-1h2.01562Zm-4.03223,0h-2.0166v-1h2.0166Zm-4.0332,0h-2.0166v-1h2.0166Zm-4.0332,0h-2.0166v-1h2.0166Zm-4.03321,0h-2.0166v-1h2.0166Zm-4.0332,0h-2.0166v-1h2.0166Zm-4.03223,0h-2.0166v-1h2.0166Zm-4.0332,0h-2.0166v-1h2.0166Zm-4.0332,0h-2.0166v-1h2.0166Zm-4.0332,0h-2.01661v-1h2.01661Zm-4.03321,0h-2.0166v-1h2.0166Zm-4.03222,0h-2.01661v-1h2.01661Zm-4.03321,0h-2.0166v-1h2.0166Zm-4.0332,0h-2.0166v-1h2.0166Z"/>
      <polygon points="586.927 368.552 585.927 368.552 585.927 368.052 585.427 368.052 585.427 367.052 586.927 367.052 586.927 368.552"/>
      <path d="M586.92725,473.41016h-1V471.394h1Zm0-4.03272h-1v-2.0166h1Zm0-4.0332h-1v-2.0166h1Zm0-4.0332h-1v-2.01612h1Zm0-4.03272h-1v-2.0166h1Zm0-4.0332h-1v-2.0166h1Zm0-4.03272h-1v-2.0166h1Zm0-4.0332h-1v-2.0166h1Zm0-4.0332h-1v-2.01612h1Zm0-4.03272h-1v-2.0166h1Zm0-4.0332h-1v-2.0166h1Zm0-4.03272h-1v-2.0166h1Zm0-4.0332h-1v-2.0166h1Zm0-4.0332h-1v-2.0166h1Zm0-4.03272h-1v-2.0166h1Zm0-4.0332h-1v-2.0166h1Zm0-4.0332h-1v-2.01612h1Zm0-4.03272h-1v-2.0166h1Zm0-4.0332h-1v-2.0166h1Zm0-4.03272h-1v-2.0166h1Zm0-4.0332h-1v-2.0166h1Zm0-4.0332h-1v-2.0166h1Zm0-4.03272h-1v-2.0166h1Zm0-4.0332h-1v-2.0166h1Zm0-4.0332h-1v-2.01612h1Zm0-4.03272h-1v-2.0166h1Z"/>
    </g>
    <g>
      <polygon points="447.489 446.49 445.989 446.49 445.989 445.49 446.489 445.49 446.489 444.99 447.489 444.99 447.489 446.49"/>
      <path d="M443.98926,446.48975h-2v-1h2Zm-4,0h-2v-1h2Zm-4,0h-2v-1h2Zm-4,0h-2v-1h2Zm-4,0h-2v-1h2Zm-4,0h-2v-1h2Zm-4,0h-2v-1h2Zm-4,0h-2v-1h2Zm-4,0h-2v-1h2Zm-4,0h-2v-1h2Zm-4,0h-2v-1h2Z"/>
      <polygon points="399.989 446.49 398.489 446.49 398.489 444.99 399.489 444.99 399.489 445.49 399.989 445.49 399.989 446.49"/>
      <path d="M399.48926,442.98975h-1v-2h1Zm0-4h-1v-2h1Zm0-4h-1v-2h1Zm0-4h-1v-2h1Zm0-4h-1v-2h1Zm0-4h-1v-2h1Zm0-4h-1v-2h1Zm0-4h-1v-2h1Zm0-4h-1v-2h1Zm0-4h-1v-2h1Zm0-4h-1v-2h1Z"/>
      <polygon points="399.489 398.99 398.489 398.99 398.489 397.49 399.989 397.49 399.989 398.49 399.489 398.49 399.489 398.99"/>
      <path d="M443.98926,398.48975h-2v-1h2Zm-4,0h-2v-1h2Zm-4,0h-2v-1h2Zm-4,0h-2v-1h2Zm-4,0h-2v-1h2Zm-4,0h-2v-1h2Zm-4,0h-2v-1h2Zm-4,0h-2v-1h2Zm-4,0h-2v-1h2Zm-4,0h-2v-1h2Zm-4,0h-2v-1h2Z"/>
      <polygon points="447.489 398.99 446.489 398.99 446.489 398.49 445.989 398.49 445.989 397.49 447.489 397.49 447.489 398.99"/>
      <path d="M447.48926,442.98975h-1v-2h1Zm0-4h-1v-2h1Zm0-4h-1v-2h1Zm0-4h-1v-2h1Zm0-4h-1v-2h1Zm0-4h-1v-2h1Zm0-4h-1v-2h1Zm0-4h-1v-2h1Zm0-4h-1v-2h1Zm0-4h-1v-2h1Zm0-4h-1v-2h1Z"/>
    </g>
    <g>
      <polygon points="556.49 446.49 554.99 446.49 554.99 445.49 555.49 445.49 555.49 444.99 556.49 444.99 556.49 446.49"/>
      <path d="M552.98975,446.48975h-2v-1h2Zm-4,0h-2v-1h2Zm-4,0h-2v-1h2Zm-4,0h-2v-1h2Zm-4,0h-2v-1h2Zm-4,0h-2v-1h2Zm-4,0h-2v-1h2Zm-4,0h-2v-1h2Zm-4,0h-2v-1h2Zm-4,0h-2v-1h2Zm-4,0h-2v-1h2Z"/>
      <polygon points="508.99 446.49 507.49 446.49 507.49 444.99 508.49 444.99 508.49 445.49 508.99 445.49 508.99 446.49"/>
      <path d="M508.48975,442.98975h-1v-2h1Zm0-4h-1v-2h1Zm0-4h-1v-2h1Zm0-4h-1v-2h1Zm0-4h-1v-2h1Zm0-4h-1v-2h1Zm0-4h-1v-2h1Zm0-4h-1v-2h1Zm0-4h-1v-2h1Zm0-4h-1v-2h1Zm0-4h-1v-2h1Z"/>
      <polygon points="508.49 398.99 507.49 398.99 507.49 397.49 508.99 397.49 508.99 398.49 508.49 398.49 508.49 398.99"/>
      <path d="M552.98975,398.48975h-2v-1h2Zm-4,0h-2v-1h2Zm-4,0h-2v-1h2Zm-4,0h-2v-1h2Zm-4,0h-2v-1h2Zm-4,0h-2v-1h2Zm-4,0h-2v-1h2Zm-4,0h-2v-1h2Zm-4,0h-2v-1h2Zm-4,0h-2v-1h2Zm-4,0h-2v-1h2Z"/>
      <polygon points="556.49 398.99 555.49 398.99 555.49 398.49 554.99 398.49 554.99 397.49 556.49 397.49 556.49 398.99"/>
      <path d="M556.48975,442.98975h-1v-2h1Zm0-4h-1v-2h1Zm0-4h-1v-2h1Zm0-4h-1v-2h1Zm0-4h-1v-2h1Zm0-4h-1v-2h1Zm0-4h-1v-2h1Zm0-4h-1v-2h1Zm0-4h-1v-2h1Zm0-4h-1v-2h1Zm0-4h-1v-2h1Z"/>
    </g>
    <g>
      <polygon points="447.489 555.489 445.989 555.489 445.989 554.489 446.489 554.489 446.489 553.989 447.489 553.989 447.489 555.489"/>
      <path d="M443.98926,555.48926h-2v-1h2Zm-4,0h-2v-1h2Zm-4,0h-2v-1h2Zm-4,0h-2v-1h2Zm-4,0h-2v-1h2Zm-4,0h-2v-1h2Zm-4,0h-2v-1h2Zm-4,0h-2v-1h2Zm-4,0h-2v-1h2Zm-4,0h-2v-1h2Zm-4,0h-2v-1h2Z"/>
      <polygon points="399.989 555.489 398.489 555.489 398.489 553.989 399.489 553.989 399.489 554.489 399.989 554.489 399.989 555.489"/>
      <path d="M399.48926,551.98926h-1v-2h1Zm0-4h-1v-2h1Zm0-4h-1v-2h1Zm0-4h-1v-2h1Zm0-4h-1v-2h1Zm0-4h-1v-2h1Zm0-4h-1v-2h1Zm0-4h-1v-2h1Zm0-4h-1v-2h1Zm0-4h-1v-2h1Zm0-4h-1v-2h1Z"/>
      <polygon points="399.489 507.989 398.489 507.989 398.489 506.489 399.989 506.489 399.989 507.489 399.489 507.489 399.489 507.989"/>
      <path d="M443.98926,507.48926h-2v-1h2Zm-4,0h-2v-1h2Zm-4,0h-2v-1h2Zm-4,0h-2v-1h2Zm-4,0h-2v-1h2Zm-4,0h-2v-1h2Zm-4,0h-2v-1h2Zm-4,0h-2v-1h2Zm-4,0h-2v-1h2Zm-4,0h-2v-1h2Zm-4,0h-2v-1h2Z"/>
      <polygon points="447.489 507.989 446.489 507.989 446.489 507.489 445.989 507.489 445.989 506.489 447.489 506.489 447.489 507.989"/>
      <path d="M447.48926,551.98926h-1v-2h1Zm0-4h-1v-2h1Zm0-4h-1v-2h1Zm0-4h-1v-2h1Zm0-4h-1v-2h1Zm0-4h-1v-2h1Zm0-4h-1v-2h1Zm0-4h-1v-2h1Zm0-4h-1v-2h1Zm0-4h-1v-2h1Zm0-4h-1v-2h1Z"/>
    </g>
    <g>
      <polygon points="556.49 555.489 554.99 555.489 554.99 554.489 555.49 554.489 555.49 553.989 556.49 553.989 556.49 555.489"/>
      <path d="M552.98975,555.48926h-2v-1h2Zm-4,0h-2v-1h2Zm-4,0h-2v-1h2Zm-4,0h-2v-1h2Zm-4,0h-2v-1h2Zm-4,0h-2v-1h2Zm-4,0h-2v-1h2Zm-4,0h-2v-1h2Zm-4,0h-2v-1h2Zm-4,0h-2v-1h2Zm-4,0h-2v-1h2Z"/>
      <polygon points="508.99 555.489 507.49 555.489 507.49 553.989 508.49 553.989 508.49 554.489 508.99 554.489 508.99 555.489"/>
      <path d="M508.48975,551.98926h-1v-2h1Zm0-4h-1v-2h1Zm0-4h-1v-2h1Zm0-4h-1v-2h1Zm0-4h-1v-2h1Zm0-4h-1v-2h1Zm0-4h-1v-2h1Zm0-4h-1v-2h1Zm0-4h-1v-2h1Zm0-4h-1v-2h1Zm0-4h-1v-2h1Z"/>
      <polygon points="508.49 507.989 507.49 507.989 507.49 506.489 508.99 506.489 508.99 507.489 508.49 507.489 508.49 507.989"/>
      <path d="M552.98975,507.48926h-2v-1h2Zm-4,0h-2v-1h2Zm-4,0h-2v-1h2Zm-4,0h-2v-1h2Zm-4,0h-2v-1h2Zm-4,0h-2v-1h2Zm-4,0h-2v-1h2Zm-4,0h-2v-1h2Zm-4,0h-2v-1h2Zm-4,0h-2v-1h2Zm-4,0h-2v-1h2Z"/>
      <polygon points="556.49 507.989 555.49 507.989 555.49 507.489 554.99 507.489 554.99 506.489 556.49 506.489 556.49 507.989"/>
      <path d="M556.48975,551.98926h-1v-2h1Zm0-4h-1v-2h1Zm0-4h-1v-2h1Zm0-4h-1v-2h1Zm0-4h-1v-2h1Zm0-4h-1v-2h1Zm0-4h-1v-2h1Zm0-4h-1v-2h1Zm0-4h-1v-2h1Zm0-4h-1v-2h1Zm0-4h-1v-2h1Z"/>
    </g>
    <path d="M557.19678,555.48926h-3.08887v-1h1.88184v.334l.2705-.27051Zm-5.08887,0h-2v-1h2Zm-4,0h-2v-1h2Zm-4,0h-2v-1h2Zm-4,0h-2v-1h2Zm-4,0h-2v-1h2Zm-4,0h-2v-1h2Zm-4,0h-2v-1h2Zm-4,0h-2v-1h2Zm-4,0h-2v-1h2Zm-4,0h-2v-1h2Zm-4,0h-2v-1h2Zm-4,0h-2v-1h2Zm-4,0h-2v-1h2Zm-4,0h-2v-1h2Zm-4,0h-2v-1h2Zm-4,0h-2v-1h2Zm-4,0h-2v-1h2Zm-4,0h-2v-1h2Zm-4,0h-2v-1h2Zm-4,0h-2v-1h2Zm-4,0h-2v-1h2Zm-4,0h-2v-1h2Zm-4,0h-2v-1h2Zm-4,0h-2v-1h2Zm-4,0h-2v-1h2Zm-4.00049,0h-2v-1h2Zm-4,0h-2v-1h2Zm-4,0h-2v-1h2Zm-4,0h-2v-1h2Zm-4,0h-2v-1h2Zm-4,0h-2v-1h2Zm-4,0h-2v-1h2Zm-4,0h-2v-1h2Zm-4,0h-2v-1h2Zm-4,0h-2v-1h2Zm-4,0h-2v-1h2Zm-4,0h-2v-1h2Zm-4,0h-2v-1h2Zm-4,0h-2.32617l1.478-1.47656.47656.47656h.37158Zm154.03174-1.64356-1.415-1.415.707-.707,1.415,1.415Zm-152.75879-.541-.707-.707,1.41455-1.41407.707.707Zm149.92969-2.28809-1.41406-1.41406.707-.707,1.41406,1.41406Zm-147.10108-.54-.707-.707,1.41407-1.41406.707.707Zm144.273-2.28808-1.41406-1.41407.707-.707,1.41406,1.41407Zm-141.44433-.54-.707-.707,1.41406-1.41407.707.707Zm138.61621-2.28809-1.415-1.415.707-.707,1.415,1.415Zm-135.78809-.541-.707-.707,1.41406-1.41406.707.707Zm132.959-2.28809-1.41407-1.41406.707-.707,1.41406,1.41406Zm-130.13037-.54-.707-.707,1.41407-1.41406.707.707Zm127.30224-2.28808-1.41406-1.41407.707-.707,1.41406,1.41406Zm-124.47412-.54-.707-.707L416.23,537.042l.707.707Zm121.646-2.28809-1.41407-1.41406.707-.707,1.41406,1.41406Zm-118.81739-.541-.707-.707,1.41407-1.41406.707.707Zm115.98829-2.28808-1.41407-1.41406.707-.707,1.41407,1.41407Zm-113.15967-.54-.707-.707,1.41406-1.41406.707.707Zm110.37256-2.71875-.001-2h1l.001,2Zm-108.063-.73828h-1v-2h1Zm108.06006-3.26172-.001-2h1l.001,2Zm-108.06006-.73828h-1v-2h1Zm108.0581-3.26172-.001-2h1l.001,2Zm-108.0581-.73828h-1v-2h1Zm108.05615-3.26172-.001-2h1l.001,2Zm-108.05615-.73828h-1v-2h1Zm108.05322-3.26172-.001-2h1l.001,2Zm-108.05322-.73828h-1v-2h1Zm108.05127-3.26172-.001-2h1l.001,2Zm-108.05127-.73828h-1v-2h1Zm108.04931-3.26172-.001-2h1l.001,2Zm-108.04931-.73828h-1v-2h1Zm108.04638-3.26172-.001-2h1l.001,2Zm-108.04638-.73828h-1v-2h1Zm108.04443-3.26172-.001-2h1l.001,2Zm-108.04443-.73828h-1v-2h1Zm108.04248-3.26172-.001-2h1l.001,2Zm-108.04248-.73828h-1v-2h1Zm108.03955-3.26221-.001-2h1l.001,2Zm-108.03955-.73779h-1v-2h1Zm108.0376-3.26221-.001-2h1l.001,2Zm-108.0376-.73779h-1v-2h1Zm108.03564-3.26221-.001-2h1l.001,2Zm-108.03564-.73779h-1v-2h1ZM531.522,478.78662l-.001-2h1l.001,2Zm-108.03271-.73779h-1v-2h1ZM531.52,474.78662l-.001-2h1l.001,2Zm-108.03076-.73779h-1v-2h1Zm108.02881-3.26172-.002-2,1-.001.002,2Zm-108.02881-.73828h-1v-2h1Zm108.02588-3.26221-.001-2h1l.001,2Zm-108.02588-.73779h-1v-2h1Zm108.02392-3.26221-.001-2h1l.001,2Zm-108.02392-.73779h-1v-2h1Zm108.022-3.26172-.00195-2,1-.001.00195,2Zm-108.022-.73828h-1v-2h1Zm108.019-3.26221-.001-2h1l.001,2Zm-108.019-.73779h-1v-2h1Zm108.01709-3.26221-.001-2h1l.001,2Zm-108.01709-.73779h-1v-2h1Zm108.01513-3.26172-.00195-2,1-.001.00195,2Zm-108.01513-.73828h-1v-2h1Zm108.0122-3.26221-.001-2h1l.001,2Zm-108.0122-.73779h-1v-2h1Zm108.01025-3.26221-.001-2h1l.001,2Zm-108.01025-.73779h-1v-2h1Zm108.0083-3.26172-.00195-2,1-.001.00195,2Zm-108.0083-.73828h-1v-2h1Zm108.00537-3.26221-.001-2h1l.001,2Zm-108.00537-.73779h-1v-2h1Zm108.00342-3.26221-.001-2h1l.001,2Zm-108.00342-.73779h-1v-2h1Zm109.00049-3.26221h-1v-1.00391l.99707-.99707.707.707-.7041.7041Zm-109.854-.44336-1.37256-1.37256.707-.707,1.519,1.519v.207l-.53125.03125Zm111.97217-2.26513-.707-.707,1.41406-1.41406.707.707Zm-114.75879-.52149-1.41455-1.41455.707-.707,1.41455,1.41455ZM537.437,417.25l-.707-.707,1.41406-1.41406.707.707Zm-120.4165-.522-1.41406-1.41407.707-.707,1.41406,1.41407Zm123.24463-2.30664-.707-.707,1.41406-1.41407.707.707Zm-126.07325-.522-1.41406-1.41406.707-.707,1.41407,1.41406Zm128.90137-2.30615-.707-.707,1.41406-1.41455.707.707Zm-131.72949-.522-1.41455-1.41455.707-.707,1.41455,1.41455Zm134.55859-2.30664-.707-.707,1.41406-1.41407.707.707Zm-137.3872-.522-1.41407-1.41407.707-.707,1.41406,1.41406ZM548.75049,405.936l-.707-.707,1.41406-1.41406.707.707ZM405.707,405.41455,404.29248,404l.707-.707,1.41455,1.41455Zm145.87158-2.30664-.707-.707,1.41406-1.41455.707.707Zm-148.70019-.522-1.41406-1.41406.707-.707,1.41406,1.41407Zm151.52832-2.30664-.707-.707,1.415-1.41407.707.707Zm-154.35694-.522-1.41406-1.41406.707-.707,1.41407,1.41406ZM554.728,398.48975h-2v-1h2Zm-4,0h-2v-1h2Zm-4,0h-2v-1h2Zm-4,0h-2v-1h2Zm-4,0h-2v-1h2Zm-4,0h-2v-1h2Zm-4,0h-2v-1h2Zm-4,0h-2v-1h2Zm-4,0h-2v-1h2Zm-4,0h-2v-1h2Zm-4,0h-2v-1h2Zm-4,0h-2v-1h2Zm-4,0h-2v-1h2Zm-4,0h-2v-1h2Zm-4,0h-2v-1h2Zm-4,0h-2v-1h2Zm-4,0h-2v-1h2Zm-4,0h-2v-1h2Zm-4,0h-2v-1h2Zm-4,0h-2v-1h2Zm-4,0h-2v-1h2Zm-4,0h-2v-1h2Zm-4,0h-2v-1h2Zm-4,0h-2v-1h2Zm-4,0h-2v-1h2Zm-4,0h-2v-1h2Zm-4.00049,0h-2v-1h2Zm-4,0h-2v-1h2Zm-4,0h-2v-1h2Zm-4,0h-2v-1h2Zm-4,0h-2v-1h2Zm-4,0h-2v-1h2Zm-4,0h-2v-1h2Zm-4,0h-2v-1h2Zm-4,0h-2v-1h2Zm-4,0h-2v-1h2Zm-4,0h-2v-1h2Zm-4,0h-2v-1h2Zm-4,0h-2v-1h2Z"/>
    <path d="M413.51074,417.58594a5.075,5.075,0,1,1,5.0752-5.07471A5.08027,5.08027,0,0,1,413.51074,417.58594Zm0-8.1499a3.075,3.075,0,1,0,3.0752,3.07519A3.0784,3.0784,0,0,0,413.51074,409.436Z"/>
    <path d="M399.74365,403.81934a5.0752,5.0752,0,1,1,5.0752-5.0752A5.08069,5.08069,0,0,1,399.74365,403.81934Zm0-8.15039a3.0752,3.0752,0,1,0,3.0752,3.07519A3.0784,3.0784,0,0,0,399.74365,395.669Z"/>
    <path d="M422.98926,536.127a5.0752,5.0752,0,1,1,5.07519-5.07519A5.08038,5.08038,0,0,1,422.98926,536.127Zm0-8.15039a3.0752,3.0752,0,1,0,3.07519,3.0752A3.07873,3.07873,0,0,0,422.98926,527.97656Z"/>
    <path d="M541.68115,545.75586a5.07471,5.07471,0,1,1,5.0752-5.07422A5.08027,5.08027,0,0,1,541.68115,545.75586Zm0-8.14941a3.07471,3.07471,0,1,0,3.0752,3.07519A3.07913,3.07913,0,0,0,541.68115,537.60645Z"/>
    <path d="M555.98975,560.06445a5.0752,5.0752,0,1,1,5.07519-5.07519A5.08048,5.08048,0,0,1,555.98975,560.06445Zm0-8.15039a3.0752,3.0752,0,1,0,3.07519,3.0752A3.07914,3.07914,0,0,0,555.98975,551.91406Z"/>
    <path d="M368.55176,374.8833a7.3313,7.3313,0,1,1,7.33154-7.33105A7.3392,7.3392,0,0,1,368.55176,374.8833Zm0-12.6626a5.3313,5.3313,0,1,0,5.33154,5.33155A5.33733,5.33733,0,0,0,368.55176,362.2207Z"/>
    <path d="M586.42725,592.75879a7.33155,7.33155,0,1,1,7.33105-7.332A7.34025,7.34025,0,0,1,586.42725,592.75879Zm0-12.66309a5.33155,5.33155,0,1,0,5.33105,5.33106A5.33744,5.33744,0,0,0,586.42725,580.0957Z"/>
    <path d="M477.55225,605.30566a8.19775,8.19775,0,1,1,8.19726-8.19824A8.20755,8.20755,0,0,1,477.55225,605.30566Zm0-14.3955a6.19775,6.19775,0,1,0,6.19726,6.19726A6.20474,6.20474,0,0,0,477.55225,590.91016Z"/>
    <path d="M477.42725,364.356a8.198,8.198,0,1,1,8.19726-8.19825A8.20756,8.20756,0,0,1,477.42725,364.356Zm0-14.396a6.198,6.198,0,1,0,6.19726,6.19775A6.20484,6.20484,0,0,0,477.42725,349.96Z"/>
    <path d="M598.23291,484.75a8.198,8.198,0,1,1,8.19824-8.19775A8.20744,8.20744,0,0,1,598.23291,484.75Zm0-14.396a6.198,6.198,0,1,0,6.19824,6.19825A6.20526,6.20526,0,0,0,598.23291,470.354Z"/>
    <path d="M356.88281,484.75a8.198,8.198,0,1,1,8.19776-8.19775A8.20744,8.20744,0,0,1,356.88281,484.75Zm0-14.396a6.198,6.198,0,1,0,6.19776,6.19825A6.20558,6.20558,0,0,0,356.88281,470.354Z"/>
    <circle cx="477.42692" cy="476.42708" r="1.08333"/>
</svg>