
<svg xmlns="http://www.w3.org/2000/svg" viewBox="0 0 954.854 954.854">
    <path d="M477.42725,217.91455a8.98755,8.98755,0,1,1,8.9873-8.9873A8.99807,8.99807,0,0,1,477.42725,217.91455Zm0-15.9751a6.98755,6.98755,0,1,0,6.9873,6.9878A6.99589,6.99589,0,0,0,477.42725,201.93945Z"/>
    <path d="M210.15381,485.02637c-.07324,0-.146-.001-.21973-.00293a8.94829,8.94829,0,1,1,.21973.00293Zm-.01074-15.9751a6.98755,6.98755,0,0,0-.16114,13.97314,7.0624,7.0624,0,0,0,4.9878-1.92871,6.98756,6.98756,0,0,0-4.65723-12.04248C210.25635,469.05225,210.19922,469.05127,210.14307,469.05127Z"/>
    <path d="M745.02783,485.63867c-.041,0-.08105,0-.12207-.00049h0a9.01136,9.01136,0,1,1,.12207.00049Zm-.09472-2.00049c.03125.00049.0625.00049.09375.00049a6.98736,6.98736,0,0,0,.09179-13.97412c-.03125-.00049-.06347-.00049-.0957-.00049a6.98737,6.98737,0,0,0-.08984,13.97412Z"/>
    <path d="M477.938,752.62891a8.9878,8.9878,0,1,1,8.9873-8.98731A8.99692,8.99692,0,0,1,477.938,752.62891Zm0-15.97559a6.9878,6.9878,0,1,0,6.9873,6.98828A6.99578,6.99578,0,0,0,477.938,736.65332Z"/>
    <path d="M555.31006,737.84277a5.07232,5.07232,0,0,1-3.54-8.709,5.13341,5.13341,0,0,1,3.60742-1.43848,5.07519,5.07519,0,0,1,3.47266,8.71094h0A5.05708,5.05708,0,0,1,555.31006,737.84277Zm-.001-8.14746a3.075,3.075,0,1,0,2.14649,5.27735h0a3.075,3.075,0,0,0-2.1045-5.27735Z"/>
    <path d="M399.52832,225.24463a5.07318,5.07318,0,0,1-3.541-8.709,5.17623,5.17623,0,0,1,3.60743-1.43847,5.07518,5.07518,0,0,1,3.47314,8.71094h0A5.05845,5.05845,0,0,1,399.52832,225.24463Zm-.00244-8.148a3.11238,3.11238,0,1,0,.04248.00049Z"/>
    <path d="M311.15039,703.72266a3.825,3.825,0,0,1-2.66943-6.56641,3.99441,3.99441,0,0,1,2.72021-1.085,3.82728,3.82728,0,0,1,2.61865,6.56836h-.00048A3.81536,3.81536,0,0,1,311.15039,703.72266Zm-.00146-6.15137a2.32664,2.32664,0,1,0,1.624,3.99414h0a2.32736,2.32736,0,0,0-1.5918-3.99414Z"/>
    <path d="M253.15137,645.89063h-.05225a3.8259,3.8259,0,0,1-2.61816-6.56739,3.89044,3.89044,0,0,1,2.72021-1.085,3.82634,3.82634,0,0,1-.0498,7.65235Zm-.002-6.15235a2.32628,2.32628,0,0,0-.03027,4.65235h.03174a2.32628,2.32628,0,0,0,.03027-4.65235Z"/>
    <path d="M701.57568,315.36182a3.82418,3.82418,0,1,1,2.66895-1.083v.00049A3.81738,3.81738,0,0,1,701.57568,315.36182Zm-.001-6.14942a2.325,2.325,0,1,0,1.667.70215A2.31831,2.31831,0,0,0,701.57471,309.2124Z"/>
    <path d="M643.0249,256.63916a3.82474,3.82474,0,0,1-2.66992-6.56592,3.71086,3.71086,0,0,1,2.7207-1.085,3.82657,3.82657,0,0,1,2.61914,6.56738v.00049A3.81841,3.81841,0,0,1,643.0249,256.63916Zm0-6.1499a2.32464,2.32464,0,1,0,1.667.70263A2.31671,2.31671,0,0,0,643.0249,250.48926Z"/>
    <path d="M221.52783,402.64648l-.06006-.00048a4.383,4.383,0,1,1,3.11573-1.24268h0A4.35034,4.35034,0,0,1,221.52783,402.64648Zm-.00195-7.26367a2.88172,2.88172,0,0,0-.03809,5.76319,2.8097,2.8097,0,0,0,2.04883-.8169l.00049-.00049a2.88065,2.88065,0,0,0-2.01123-4.9458Z"/>
    <path d="M733.27783,559.18262h-.06054a4.38321,4.38321,0,1,1,3.11621-1.24317h0A4.35242,4.35242,0,0,1,733.27783,559.18262Zm-.00195-7.26367a2.882,2.882,0,0,0-.03809,5.76367,2.92332,2.92332,0,0,0,2.04883-.81739h0a2.88088,2.88088,0,0,0-2.01074-4.94628Z"/>
    <path d="M651.73193,654.7959c-.01562,0-.03125,0-.04785-.001a3.44538,3.44538,0,0,1-2.35742-5.91406,3.47673,3.47673,0,0,1,2.4502-.97754,3.44659,3.44659,0,0,1,2.35839,5.915h0A3.42116,3.42116,0,0,1,651.73193,654.7959Zm-.002-5.39258a1.94638,1.94638,0,0,0-.02539,3.89258h.02734a1.93219,1.93219,0,0,0,1.35645-.55176h0a1.94646,1.94646,0,0,0-1.332-3.34082Z"/>
</svg>