
<svg xmlns="http://www.w3.org/2000/svg" viewBox="0 0 954.854 954.854">
    <path d="M473.90088,274.27588a5.075,5.075,0,1,1,5.07422-5.0752A5.08081,5.08081,0,0,1,473.90088,274.27588Zm0-8.1499a3.075,3.075,0,1,0,3.07422,3.0747A3.07872,3.07872,0,0,0,473.90088,266.126Z"/>
    <path d="M482.36084,274.27588a5.075,5.075,0,1,1,5.0752-5.0752A5.0806,5.0806,0,0,1,482.36084,274.27588Zm0-8.1499a3.075,3.075,0,1,0,3.0752,3.0747A3.07788,3.07788,0,0,0,482.36084,266.126Z"/>
    <path d="M270.32471,486.06787q-.06226,0-.12451-.00146a5.07491,5.07491,0,0,1,.24023-10.147h.00049a5.07493,5.07493,0,0,1-.11621,10.14844Zm-.00489-8.1499a3.07514,3.07514,0,0,0-.07226,6.14941,3.075,3.075,0,0,0,3.14746-3.001,3.07989,3.07989,0,0,0-3.00195-3.148C270.36865,477.918,270.34375,477.918,270.31982,477.918Z"/>
    <path d="M270.52246,477.60938q-.0608,0-.12158-.00147a5.07491,5.07491,0,0,1,.24023-10.147h.00049a5.07493,5.07493,0,0,1-.11914,10.14844Zm-.00293-8.14991a3.06014,3.06014,0,1,0,.07471.00049h0C270.56934,469.45947,270.54443,469.45947,270.51953,469.45947Z"/>
    <path d="M684.80518,477.39746l-.06836-.00049h0a5.07542,5.07542,0,0,1,.06738-10.15039l.06836.00049a5.07542,5.07542,0,0,1-.06738,10.15039Zm-.041-2.00049.041.00049a3.07533,3.07533,0,0,0,.04-6.15039l-.041-.00049a3.07533,3.07533,0,0,0-.04,6.15039Z"/>
    <path d="M684.69189,485.85742l-.06835-.00049h0a5.07518,5.07518,0,0,1,.06738-10.1499l.06933.00049a5.07518,5.07518,0,0,1-.06836,10.1499Zm-.041-2.00049a3.075,3.075,0,1,0,.082-6.14941l-.042-.00049a3.07508,3.07508,0,0,0-.04,6.1499Z"/>
    <path d="M481.46436,688.44238a5.0752,5.0752,0,1,1,5.07519-5.07519A5.08048,5.08048,0,0,1,481.46436,688.44238Zm0-8.15039a3.0752,3.0752,0,1,0,3.07519,3.0752A3.07914,3.07914,0,0,0,481.46436,680.292Z"/>
    <path d="M473.00342,688.44238a5.0752,5.0752,0,1,1,5.07519-5.07519A5.08048,5.08048,0,0,1,473.00342,688.44238Zm0-8.15039a3.0752,3.0752,0,1,0,3.07519,3.0752A3.07915,3.07915,0,0,0,473.00342,680.292Z"/>
    <path d="M621.61572,332.4165l-.06933-.00048a5.06692,5.06692,0,1,1,.06933.00048Zm-.00293-8.14892a3.07435,3.07435,0,0,0-.04,6.14844,3.11572,3.11572,0,0,0,2.18653-.87159h0a3.074,3.074,0,0,0-2.14649-5.27685Z"/>
    <path d="M627.51807,338.47852l-.06934-.00049a5.0776,5.0776,0,1,1,3.60742-1.439h0A5.03765,5.03765,0,0,1,627.51807,338.47852Zm-.002-8.14893a3.07436,3.07436,0,1,0,2.14551,5.27686V335.606a3.07351,3.07351,0,0,0-2.14551-5.27637Z"/>
    <path d="M327.56152,625.50879a5.07281,5.07281,0,0,1-3.5415-8.709,5.15454,5.15454,0,0,1,3.6084-1.43847,5.07588,5.07588,0,0,1,3.47265,8.71191h-.00048A5.05971,5.05971,0,0,1,327.56152,625.50879Zm-.00293-8.14746a3.07521,3.07521,0,1,0,2.147,5.27832h0a3.07523,3.07523,0,0,0-2.104-5.27832Z"/>
    <path d="M333.46533,631.57324H333.395a5.07515,5.07515,0,1,1,3.6084-1.43847h0A5.04265,5.04265,0,0,1,333.46533,631.57324Zm-.00293-8.14844a3.07436,3.07436,0,0,0-.04052,6.14844,3.12214,3.12214,0,0,0,2.186-.87207h0a3.07281,3.07281,0,0,0-2.14551-5.27637Z"/>
    <path d="M608.50537,611.57031h-.04687a3.50079,3.50079,0,1,1,.04687,0Zm-.00195-5.3916a1.94588,1.94588,0,0,0-.02442,3.8916,1.86523,1.86523,0,0,0,1.38282-.55176h0a1.94533,1.94533,0,0,0-1.3584-3.33984Z"/>
    <path d="M346.23145,348.544a3.44431,3.44431,0,1,1,2.4038-.97559A3.43635,3.43635,0,0,1,346.23145,348.544Zm-.001-5.38965a1.94533,1.94533,0,1,0,1.39453.5874A1.93928,1.93928,0,0,0,346.23047,343.1543Z"/>
    <path d="M626.2251,624.53418a4.86422,4.86422,0,1,1,3.39551-1.37793h0A4.85494,4.85494,0,0,1,626.2251,624.53418Zm-.001-8.23047a3.36622,3.36622,0,1,0,2.41309,1.01758A3.359,3.359,0,0,0,626.22412,616.30371Z"/>
    <path d="M619.76318,631.65137a4.86253,4.86253,0,1,1,3.39551-1.37793A4.85457,4.85457,0,0,1,619.76318,631.65137Zm0-8.23047a3.36407,3.36407,0,1,0,2.41211,1.0166A3.35738,3.35738,0,0,0,619.76318,623.4209Z"/>
    <path d="M633.8501,645.47363a11.5414,11.5414,0,1,1,8.05371-3.26855h0A11.51,11.51,0,0,1,633.8501,645.47363Zm-.00293-21.584a10.045,10.045,0,1,0,7.00976,17.24121l.52344.53711-.52344-.53711a10.04256,10.04256,0,0,0-7.00976-17.24121Z"/>
    <path d="M328.16553,339.04785a4.86455,4.86455,0,0,1-3.39649-8.35156l.52344.5376-.52344-.5376a4.91043,4.91043,0,0,1,3.46045-1.3794,4.86567,4.86567,0,0,1-.064,9.731Zm-2.3501-7.27637a3.3658,3.3658,0,1,0,2.39453-.95507,3.29844,3.29844,0,0,0-2.394.95507Z"/>
    <path d="M334.627,331.93066a4.8653,4.8653,0,0,1-3.396-8.35156h-.00049a4.86731,4.86731,0,1,1,3.39648,8.35156Zm-.002-8.23144a3.40055,3.40055,0,1,0,.0459.00049Z"/>
    <path d="M320.54492,331.46729c-.05273,0-.105,0-.1582-.001a11.55533,11.55533,0,1,1,.1582.001Zm-.00781-21.59327a9.979,9.979,0,0,0-7.00488,2.84864l-.00049.00048a10.04675,10.04675,0,1,0,7.14258-2.84814C320.62842,309.87451,320.583,309.874,320.53711,309.874Z"/>
</svg>