
<svg xmlns="http://www.w3.org/2000/svg" viewBox="0 0 954.854 954.854">
    <path d="M372.23242,693.55566a3.07366,3.07366,0,0,1-2.14551-5.27636,2.97651,2.97651,0,0,1,2.186-.87207,3.075,3.075,0,0,1,2.105,5.27832h-.00049A3.06447,3.06447,0,0,1,372.23242,693.55566Zm0-4.64941a1.57584,1.57584,0,0,0-1.12939,2.6748,1.57559,1.57559,0,1,0,2.25781-2.19824,1.56423,1.56423,0,0,0-1.10742-.47656Z"/>
    <path d="M583.09521,265.98193l-.04-.00048a2.89577,2.89577,0,1,1,2.05859-.82081h0A2.8737,2.8737,0,0,1,583.09521,265.98193Zm-.00195-4.291a1.39557,1.39557,0,0,0-.01758,2.791,1.48917,1.48917,0,0,0,.99121-.3955v-.00049a1.39455,1.39455,0,0,0-.97363-2.395Z"/>
    <path d="M691.01123,374.73779a2.89451,2.89451,0,1,1,2.01953-.81982A2.88946,2.88946,0,0,1,691.01123,374.73779Zm-.001-4.28955a1.39481,1.39481,0,1,0,1.001.42139A1.38974,1.38974,0,0,0,691.01025,370.44824Z"/>
    <path d="M263.80273,584.93457h-.0415a3.05105,3.05105,0,1,1,2.16895-.86523h0A3.03069,3.03069,0,0,1,263.80273,584.93457Zm-.001-4.60059a1.55036,1.55036,0,1,0,1.08154,2.66114h.00049a1.55043,1.55043,0,0,0-1.061-2.66114Z"/>
    <path d="M303.12305,305.96387a3.44461,3.44461,0,0,1-2.4043-5.91358,3.52682,3.52682,0,0,1,2.4502-.97705,3.44634,3.44634,0,0,1,2.35839,5.915l-.00048.00049A3.43524,3.43524,0,0,1,303.12305,305.96387Zm-.00049-5.39112a1.94638,1.94638,0,0,0-.02539,3.89258,1.87991,1.87991,0,0,0,1.3833-.55127h0a1.94622,1.94622,0,0,0-1.33154-3.34082Z"/>
</svg>