
<svg xmlns="http://www.w3.org/2000/svg" viewBox="0 0 954.854 954.854">
    <path d="M477.42725,655.42676c-98.14991,0-178.00049-79.85059-178.00049-177.99951,0-98.14942,79.85058-178,178.00049-178,98.14941,0,178,79.85058,178,178C655.42725,575.57617,575.57666,655.42676,477.42725,655.42676Zm0-353.99951c-97.04688,0-176.00049,78.95312-176.00049,176,0,97.04638,78.95361,175.99951,176.00049,175.99951s176-78.95313,176-175.99951C653.42725,380.38037,574.47412,301.42725,477.42725,301.42725Z"/>
    <path d="M477.42725,744.92676a268.49923,268.49923,0,1,1,189.85839-78.6416A266.7423,266.7423,0,0,1,477.42725,744.92676Zm0-534.99951c-146.94873,0-266.50049,119.55127-266.50049,266.5S330.47852,742.92676,477.42725,742.92676c146.94824,0,266.5-119.55078,266.5-266.49951S624.37549,209.92725,477.42725,209.92725Z"/>
    <path d="M477.42725,837.42676a359.87016,359.87016,0,1,1,140.51757-28.36914A358.7503,358.7503,0,0,1,477.42725,837.42676Zm0-719.99951c-197.95362,0-359.00049,161.04687-359.00049,359,0,197.95263,161.04687,358.99951,359.00049,358.99951,197.95312,0,359-161.04688,359-358.99951C836.42725,278.47412,675.38037,117.42725,477.42725,117.42725Z"/>
</svg>