
<svg xmlns="http://www.w3.org/2000/svg" viewBox="0 0 954.854 954.854">
    <rect x="476.67725" width="1.5" height="299.34375"/>
    <rect x="375.39488" y="16.04177" width="1.50027" height="299.34322" transform="translate(-32.79838 124.34552) rotate(-17.99996)"/>
    <rect x="270.41384" y="73.0416" width="1.50045" height="299.34355" transform="translate(-79.72806 220.28136) rotate(-38.99995)"/>
    <rect x="201.79855" y="149.2472" width="1.50007" height="299.343" transform="translate(-158.46159 305.98772) rotate(-57.00004)"/>
    <rect x="170.69148" y="210.2984" width="1.49986" height="299.34315" transform="translate(-226.05861 391.02274) rotate(-69.00002)"/>
    <rect x="156.08447" y="259.61117" width="1.49951" height="299.34358" transform="translate(-276.11254 477.59559) rotate(-78.00004)"/>
    <rect y="476.67676" width="299.34375" height="1.5"/>
    <rect x="11.16815" y="561.50564" width="299.34338" height="1.50043" transform="translate(-140.1566 60.85557) rotate(-15.01309)"/>
    <rect x="43.91111" y="640.55429" width="299.3433" height="1.49982" transform="translate(-294.74903 182.74404) rotate(-30.00401)"/>
    <rect x="95.99751" y="708.43514" width="299.34337" height="1.49984" transform="translate(-429.51472 381.42984) rotate(-45)"/>
    <rect x="163.87788" y="760.52109" width="299.34287" height="1.49982" transform="translate(-502.49772 652.12005) rotate(-59.99599)"/>
    <rect x="242.92596" y="793.26346" width="299.34338" height="1.50043" transform="translate(-476.01207 967.52959) rotate(-74.98691)"/>
    <rect x="476.67725" y="655.51025" width="1.5" height="299.34375"/>
    <rect x="561.50564" y="644.34198" width="1.50043" height="299.34338" transform="translate(-186.34706 172.57741) rotate(-14.99996)"/>
    <rect x="640.55429" y="611.59956" width="1.49982" height="299.34287" transform="translate(-294.7176 422.64465) rotate(-30.0001)"/>
    <rect x="708.43514" y="559.5132" width="1.49984" height="299.34371" transform="translate(-293.75407 709.18506) rotate(-45)"/>
    <rect x="760.52109" y="491.63276" width="1.49982" height="299.34287" transform="translate(-174.7508 979.93054) rotate(-59.9999)"/>
    <rect x="793.26346" y="412.58417" width="1.50043" height="299.34338" transform="translate(45.41075 1183.69212) rotate(-75.00004)"/>
    <rect x="655.51025" y="476.67676" width="299.34375" height="1.5"/>
    <rect x="648.34798" y="408.5331" width="299.3431" height="1.49972" transform="translate(-67.76647 175.26948) rotate(-12.02701)"/>
    <rect x="627.17388" y="343.36718" width="299.34365" height="1.49952" transform="translate(-72.80369 345.39056) rotate(-23.97764)"/>
    <rect x="592.91488" y="284.02745" width="299.3431" height="1.4998" transform="translate(-25.685 490.42693) rotate(-35.96703)"/>
    <rect x="520.40511" y="211.51779" width="299.3431" height="1.49958" transform="translate(104.348 629.41423) rotate(-53.98086)"/>
    <rect x="429.03689" y="164.96371" width="299.34322" height="1.49934" transform="translate(242.08411 664.76094) rotate(-71.97809)"/>
</svg>